<svg xmlns="http://www.w3.org/2000/svg" xmlns:xlink="http://www.w3.org/1999/xlink" viewBox="0 0 42.94 42.94"><defs><style>.cls-1{fill:url(#名称未設定グラデーション_15);}.cls-2{fill:#fff;}</style><linearGradient id="名称未設定グラデーション_15" x1="9.37" y1="38.07" x2="33.69" y2="4.7" gradientUnits="userSpaceOnUse"><stop offset="0" stop-color="#fdda76"/><stop offset="0.31" stop-color="#e61803"/><stop offset="0.63" stop-color="#b91564"/><stop offset="1" stop-color="#5c4cd0"/></linearGradient></defs><g id="レイヤー_2" data-name="レイヤー 2"><g id="レイヤー_1-2" data-name="レイヤー 1"><circle class="cls-1" cx="21.47" cy="21.47" r="21.47"/><path class="cls-2" d="M34.87,17.89c0-.62,0-1.24-.08-1.85a8.82,8.82,0,0,0-.51-2.54A6.42,6.42,0,0,0,30.6,9.65a8.86,8.86,0,0,0-3-.64c-.91,0-1.83-.08-2.75-.08H22.12c-1.9,0-3.8,0-5.7.1a8.84,8.84,0,0,0-2.54.52,6.42,6.42,0,0,0-3.6,3.17,8.25,8.25,0,0,0-.83,3.2c-.07.78-.1,1.56-.1,2.34,0,2.7,0,5.4,0,8.1a15.15,15.15,0,0,0,.2,2.23A7.11,7.11,0,0,0,11,31.76a6.54,6.54,0,0,0,3,2.13,9.47,9.47,0,0,0,2.69.5c.68,0,1.37.07,2.06.07,2.43,0,4.86,0,7.29,0,.6,0,1.19,0,1.78-.07a9.63,9.63,0,0,0,2.6-.54,6.45,6.45,0,0,0,3.26-2.67,8,8,0,0,0,1.12-3.7q.08-1.08.09-2.16C34.89,22.84,34.91,20.36,34.87,17.89ZM32.5,27a7,7,0,0,1-.41,2.18,4.17,4.17,0,0,1-2.48,2.48,6.26,6.26,0,0,1-1.66.38c-.8.07-1.61.08-2.42.1-1.17,0-2.33,0-3.23,0h-3c-.84,0-1.69,0-2.53-.08a7.25,7.25,0,0,1-2-.35A4.55,4.55,0,0,1,13,30.63a4.62,4.62,0,0,1-1.13-2.26,8.72,8.72,0,0,1-.18-1.61c-.13-2.7-.06-5.41-.07-8.11,0-.76,0-1.52.08-2.28a6.5,6.5,0,0,1,.5-2.38,4.12,4.12,0,0,1,2.34-2.24,6.62,6.62,0,0,1,2-.42c.7-.05,1.39-.06,2.08-.08,2.21,0,4.42,0,6.63,0,.72,0,1.43,0,2.15.07a6.41,6.41,0,0,1,2.58.6,4.09,4.09,0,0,1,2.05,2.24,7,7,0,0,1,.42,2c0,.71.06,1.41.08,2.12,0,2.18,0,4.35,0,6.53C32.58,25.55,32.54,26.28,32.5,27Z"/><path class="cls-2" d="M22.16,15.14a6.56,6.56,0,1,0,6.52,6.63A6.56,6.56,0,0,0,22.16,15.14ZM22.11,26a4.26,4.26,0,1,1,4.26-4.25A4.25,4.25,0,0,1,22.11,26Z"/><path class="cls-2" d="M28.92,13.37a1.54,1.54,0,1,0,1.53,1.53A1.51,1.51,0,0,0,28.92,13.37Z"/></g></g></svg>