<svg xmlns="http://www.w3.org/2000/svg" viewBox="0 0 247.41 247.41"><defs><style>.cls-1{fill:#fff;}.cls-2{fill:#b12e29;}.cls-3{fill:#211815;}</style></defs><g id="レイヤー_2" data-name="レイヤー 2"><g id="レイヤー_1-2" data-name="レイヤー 1"><circle class="cls-1" cx="123.71" cy="123.71" r="123.71"/><circle class="cls-2" cx="106.25" cy="170.86" r="10.03"/><path class="cls-3" d="M202.24,86.08a85.51,85.51,0,1,0,6.7,33.18A84.78,84.78,0,0,0,202.24,86.08ZM48.52,119.26A75.18,75.18,0,0,1,176.87,66.1a76,76,0,0,1,10.44,13.06l-30.56,50.53,8.6,5.2,27.44-45.36c.85,2,1.6,4,2.28,6L167.15,141.3H51.79A75.48,75.48,0,0,1,48.52,119.26Zm75.19,75.18a75.38,75.38,0,0,1-68-43.09h75.38l17.78,38.8A75.12,75.12,0,0,1,123.71,194.44Zm53.16-22a75.46,75.46,0,0,1-18.81,13.74l-15.95-34.81h49.63A75.18,75.18,0,0,1,176.87,172.42Zm18.75-31.12h-16.7l19.34-31.69a77.29,77.29,0,0,1,.63,9.65A75.48,75.48,0,0,1,195.62,141.3Z"/><path class="cls-3" d="M64.47,39.13a.59.59,0,0,1,.12-.27l0-.07c.13-.19.25-.38.13-.56s-1.72-.22-1.95,0-.27.66-.27.78,0,0-.06.07l-1.14.83a.23.23,0,0,0,0-.28s-.13-.19-.7-.16l.07-.05c1.84-1.33,2.44-2.24,1.94-2.93a1,1,0,0,0-.83-.39h0c-.25,0-.6-.29-.82-.46s-.27-.23-.37-.16-.08.17,0,.3.11.25.17.36c.26.53.41.85.11,1.26a5.28,5.28,0,0,1-1,.81c-.85.61-.85.61-1.31,0L58.49,38c-.08-.12-.08-.13-.05-.2a.55.55,0,0,0,.07-.44,2.14,2.14,0,0,1,.44.16l.41.16a1,1,0,0,0,1-.09.92.92,0,0,0,.21-1.27c-.07-.09-.69-.87-1.94,0-.23.17-.94.68-.8.88a.14.14,0,0,0,.1.06,8.46,8.46,0,0,0-1.32.64c-.16.11-.27.19-.17.33l0,0,.05.05.27.31.12.15c.16.22.44.63.65.95l0,.07a1.25,1.25,0,0,0,1.61.49,10.24,10.24,0,0,1-.75,6.31c-.27.58-.25.61-.2.67l0,0h.08a.16.16,0,0,0,.1,0A10.63,10.63,0,0,0,61,41.6a4.7,4.7,0,0,0,1.22.53,10,10,0,0,1-2.39,4.2c-.54.57-.53.66-.46.75s.29,0,.42-.1a13.23,13.23,0,0,0,3.88-4.68,10,10,0,0,0,3.94-1.07.67.67,0,0,0,.3-.61,4.92,4.92,0,0,1,.73-1.91c.17-.32.2-.37.14-.45a.15.15,0,0,0-.09-.06h-.07l0,0a18.06,18.06,0,0,1-4.33,2.47A8,8,0,0,0,64.47,39.13Zm-1.84.61a7.68,7.68,0,0,1-.15,1.34A5.81,5.81,0,0,1,61.09,41v-.14Z"/><path class="cls-3" d="M55.78,42.24a.89.89,0,0,0,.64.34h.09a1.24,1.24,0,0,0,.7-.23,1.62,1.62,0,0,0,.61-1.14,2.28,2.28,0,0,0-.49-1.62,5.44,5.44,0,0,0-.45-.55c-.23-.24-.36-.34-.47-.26s-.07.17,0,.51A1.84,1.84,0,0,1,56,40.72C55.44,41.54,55.62,42,55.78,42.24Z"/><path class="cls-3" d="M55.5,35.28l.9-.66c-.15.15-.25.31-.17.42s.11.09.24.12a1.3,1.3,0,0,1,.59.37l0,0a1.05,1.05,0,0,0,.86.33l-1.22.88a1,1,0,0,0,0-1,1,1,0,0,0-.56-.37,1.75,1.75,0,0,0-1.33.42c-.78.57-.77.72-.69.83a.4.4,0,0,0,.29.11,2,2,0,0,1,.83.35,1,1,0,0,0,.71.22l-1.13.81c-.22-.18-.84-.66-1-.51s-.07.28.06.58a1.84,1.84,0,0,1-.12,1.54l0,.07a1.29,1.29,0,0,0,.05,1.28.9.9,0,0,0,.74.36,1.13,1.13,0,0,0,.66-.22,1.76,1.76,0,0,0,.27-2.47l-.15-.18,6.57-4.76a9.75,9.75,0,0,1,.2,1.27,4.14,4.14,0,0,0-.65.41.16.16,0,0,0-.08.11v.06l0,0s.07.07.33.12a8.81,8.81,0,0,1,1.89.64,1.27,1.27,0,0,0,1.31,0A1,1,0,0,0,65.06,35c-.4-.56-1.18-.65-2.2-.3a5.51,5.51,0,0,1,1-1.26c.18-.17.75-.67.44-1.1S63.46,32,63,32a3.22,3.22,0,0,0-1.22.18c-.09.07-.15.24-.23,1a.31.31,0,0,1,0,.1.09.09,0,0,1-.05.07l-1.36,1a10.2,10.2,0,0,0,.44-1.56.28.28,0,0,1,.08-.12c.15-.18.31-.38.2-.54s-.2-.27-1.51.13l.58-.53.06-.05.08-.07h0a2.36,2.36,0,0,0,.38-.22.69.69,0,0,0,.21-.21.27.27,0,0,0,0-.3c0-.06-.16-.22-.91-.34a4.88,4.88,0,0,0-1.39-.06.26.26,0,0,0-.07.11c0,.1-.18.38-.41.76a34.88,34.88,0,0,1-5.15,5.35c-.36.31-.49.44-.39.57S52.47,37.47,55.5,35.28Zm3.2-1a.93.93,0,0,0-.78-.42,1.8,1.8,0,0,0-.91.3q.87-.67,1.59-1.29a14.35,14.35,0,0,1,.86,1.91h0l-.72.53A1,1,0,0,0,58.7,34.28Z"/><path class="cls-3" d="M72,27.75l.32-.17a7.22,7.22,0,0,1-.69,3.5,2,2,0,0,0,0,1.71.93.93,0,0,0,.5.48.78.78,0,0,0,.58-.05c.56-.28.61-.72.66-3.29a1.14,1.14,0,0,1,.46-.81.44.44,0,0,1,.34,0c.32.1.66.51,1,1.14a3.54,3.54,0,0,1,.16.34c-1.19,1.89-1.07,3-.75,3.67a2.31,2.31,0,0,0,2.18,1.16A4.24,4.24,0,0,0,78.61,35c1-.49,2.25-1.64,1.8-2.54a.87.87,0,0,0-.54-.45,1.07,1.07,0,0,0-.78.08,1.42,1.42,0,0,0-.54.47,3.36,3.36,0,0,1-1.17,1,2.17,2.17,0,0,1-1.15.24.86.86,0,0,1-.74-.46,2.07,2.07,0,0,1,.2-1.68v.1a1.92,1.92,0,0,0,.11.57l0,.08,0,.11a1.24,1.24,0,0,0,.58.63.74.74,0,0,0,.65,0,1,1,0,0,0,.47-.59,1.92,1.92,0,0,0-.22-1.5,6.34,6.34,0,0,0-.64-1,26.32,26.32,0,0,1,2.36-2.56c.83-.81,1.14-1.7.82-2.35-.48-1-1.88-.77-2.48-.47S75.55,26,75.74,28.75a1.73,1.73,0,0,0-2-.46,1.85,1.85,0,0,0-.37.25c0-.36,0-.75,0-1.25v-.54c.29-.29,1.59-1.67,1.15-2.56a.6.6,0,0,0-.49-.37.86.86,0,0,0-.4.08,1.51,1.51,0,0,0-.46.38l-.21.22a1.47,1.47,0,0,0-.36-.4,1,1,0,0,0-1.1,0,1.39,1.39,0,0,0-.69.79.79.79,0,0,0,0,.4c.09.17.28.12.51.06l.13,0c.12,0,.43,0,.66.43l0,.07-.34.3a4.55,4.55,0,0,1-.64.39,1.93,1.93,0,0,1-1.14.21h0a1.06,1.06,0,0,0-.52,0,.25.25,0,0,0-.1.11.29.29,0,0,0,0,.2A2,2,0,0,0,72,27.75Zm5.84-2.2a.44.44,0,0,1,.3.21c.17.33-.09.9-1.83,3.34,0-1,.11-3,1-3.48a.72.72,0,0,1,.34-.09Z"/><path class="cls-3" d="M84.47,18.76a10.36,10.36,0,0,1,1.75,1.18,1.49,1.49,0,0,0,1,.42,1.09,1.09,0,0,0,.3-.05A1.07,1.07,0,0,0,88.17,19c-.19-.6-.77-.94-1.67-1a6.64,6.64,0,0,0-2.17.32c-.09,0-.14.05-.17.1l0,.06,0,.05C84.17,18.61,84.24,18.64,84.47,18.76Z"/><path class="cls-3" d="M88.51,17.69c.15.09.43.24.61.17h0a10.49,10.49,0,0,1,1.5-.62l.54-.17a.42.42,0,0,1,.22,0,.2.2,0,0,1,0,.1.19.19,0,0,1,0,.08.83.83,0,0,0,0,.15c.08.26.19.56.32.9h0a6,6,0,0,0-1,0,.16.16,0,0,0-.1.08.18.18,0,0,0,0,.16l.07.23c.28.91.93,4.76-.88,7.47,0-.07-.05-.14-.07-.21l-.12-.34c-.15-.49-.29-1-.4-1.54,0-.19,0-.21.13-.38l.09-.11a.41.41,0,0,0,.12-.37c-.15-.47-1.84-.9-2.1-.83s-.23.17-.51.87a.21.21,0,0,1-.11.13l-.08,0c-.38.11-1.44.28-1.75.33l-.14,0L85,24a1.28,1.28,0,0,0,.58.54.61.61,0,0,0,.47.09l.45-.22a2.55,2.55,0,0,1,.49-.23l.15-.05s.06,0,.07,0,.06.19.11.34.17.52.28.85c.49,1.57.6,2,.49,2.16a7.41,7.41,0,0,1-1.81,1.37c-.17.1-.15.22-.14.25a6.69,6.69,0,0,0,2.54,1.23h0c.21-.07.18-.31.16-.44s0-.05,0-.06a25.43,25.43,0,0,0,.84-2.52,3.81,3.81,0,0,0,3.68,1.35,15.78,15.78,0,0,0,2.31-.54A25,25,0,0,0,98.59,27a.94.94,0,0,0,.43-.56,5.53,5.53,0,0,1,.66-1.78c.14-.26.18-.34.15-.42l0-.13-.12,0,0,.11h0l0-.11a.15.15,0,0,0-.08,0,21.52,21.52,0,0,1-5.32,2.46c-3,.93-3.67.58-4.06.15A7.9,7.9,0,0,0,93,20.88a9,9,0,0,0,3.52,3.82.88.88,0,0,0,.62.05.64.64,0,0,0,.28-.19,5,5,0,0,1,1.44-1.12c.31-.18.47-.27.42-.42s-.15-.15-.28-.17c-4.27-.89-5.77-3.09-6.75-5.32l0-.09c0-.09-.06-.21.43-.54.31-.19.46-.42.39-.63,0,0,0-.15-.41-.34a2,2,0,0,0-1.07-.28c-.14,0-.28.25-.44.65l.1.08h0l-.12,0a.16.16,0,0,1-.12.12l-.53.17a12.49,12.49,0,0,1-2.29.48l-.15,0,0,.14C88.12,17.45,88.42,17.64,88.51,17.69Zm11.22,6.69h0l0-.08h0l0,.08,0-.08h0l0,.08Z"/><path class="cls-3" d="M104.71,16.69c.08.18.16.35.25.52s.27.47.46.78a5.32,5.32,0,0,0-1.07,3.57c.15,1,.84,2,1.84,1.83s2.1-1.58,2.6-2.47a2.19,2.19,0,0,0,.81.08.88.88,0,0,0,.84-1c-.06-.37-.33-.63-.84-.79a13.08,13.08,0,0,0,.8-2.9,2.68,2.68,0,0,1,2.24,2.44c.46,3.21-3.38,5.1-3.82,5.3-.82.38-.82.42-.8.53s0,.12.18.12h.08c.93-.13,3.9-.95,5.31-2.94a4.6,4.6,0,0,0,.94-3.29,4.05,4.05,0,0,0-4-3.38,5.49,5.49,0,0,0,0-.58c0-.31-.32-1.8-1.62-1.62a1.37,1.37,0,0,0-.76.38c-.16.14-.32.36-.29.53s.29.25.39.26c.35,0,.61.44.71,1.16l0,.13a6.65,6.65,0,0,0-2.4,1.38,7.89,7.89,0,0,1-.42-.89,2.27,2.27,0,0,0-2.08-1.3.31.31,0,0,0-.29.36,1.92,1.92,0,0,0,.42.74A5,5,0,0,1,104.71,16.69ZM106,18.78a6.49,6.49,0,0,0,1.69,1.64c-.76,1.11-1.33,1.21-1.34,1.21-.48.07-.63-.86-.65-1A3.45,3.45,0,0,1,106,18.78Zm3-2.38a8.39,8.39,0,0,1-.52,2.54,3.9,3.9,0,0,1-1.49-1.47A4.73,4.73,0,0,1,108.92,16.4Z"/><path class="cls-3" d="M122.82,16.54a2.25,2.25,0,0,0,1-.21c1.31-.66,2-1,2.39-1.11a8.62,8.62,0,0,0-1.35,4.4c-.05,3,1.81,4.14,3.42,4.16h.09c1.71,0,2.19-.8,2.19-1.29a1,1,0,0,0-.28-.7,1.24,1.24,0,0,0-.91-.36,2.15,2.15,0,0,0-.57.08,2.14,2.14,0,0,1-.67.11,1.72,1.72,0,0,1-1.41-.78,3.72,3.72,0,0,1-.57-2.22c0-1.73.76-3.42,1.38-3.78a5.28,5.28,0,0,1,2.25-.39,5.19,5.19,0,0,1,.77.06l.36,0h0c.85,0,1.3-.47,1.31-.94h0c0-.29-.15-1.22-2.21-1.25H130a1.91,1.91,0,0,0-.78.18,4,4,0,0,1-.46.16A32.49,32.49,0,0,0,125.31,14c-.66.28-1.33.56-2.08.84a3.63,3.63,0,0,1-1.18.24,3.2,3.2,0,0,1-.51-.06l-.11,0a1.38,1.38,0,0,0-.26,0h0a.23.23,0,0,0-.2.09.44.44,0,0,0-.06.25C120.89,16.25,122.15,16.53,122.82,16.54Z"/><path class="cls-3" d="M135.47,24.15h.1a1,1,0,0,0,.34-.09c3.52-1.34,4.73-4.73,5.5-8.23l6.75,1.37a.89.89,0,0,0,.78,1,1.24,1.24,0,0,0,.76-.09.91.91,0,0,0,.52-.64v-.06c0-.09,0-.23,0-.4a8.4,8.4,0,0,1,.12-1.06c.06-.29.12-.45.19-.47q.57-.12.63-.39a.54.54,0,0,0-.13-.35,3.77,3.77,0,0,0-1.38-1.25.35.35,0,0,0-.31.08,6,6,0,0,0-.59.49.19.19,0,0,1-.14.09l-6.42-1.3-.05-.05a5.94,5.94,0,0,0-2.06-1.31.17.17,0,0,0-.21.13v.18a24.46,24.46,0,0,1-.43,4.16c-.57,2.84-1.87,6.35-3.79,7.67-.2.13-.28.22-.3.3a.16.16,0,0,0,0,.12Zm6.28-10,0-.23a.83.83,0,0,0,0-.13.43.43,0,0,1,.21-.18l.22-.12,6.23,1.26c.16,0,.17.05.17.08a1.63,1.63,0,0,1-.06.5c-.1.49-.22,1-.28,1.26l-6.75-1.36C141.61,14.9,141.69,14.54,141.75,14.18Z"/><path class="cls-3" d="M146.67,26.43a1,1,0,0,0,.64.38l.29,0a1.14,1.14,0,0,0,.63-.17.6.6,0,0,0,.29-.42V26.2c.19-1.31.63-3.85.78-4.58l0-.16c0-.17,0-.17.22-.25l.16-.07c.21-.1.36-.2.39-.36.08-.42-1.31-1.5-1.48-1.53s-.86.55-.86.55-.07,0-.09,0l-1.5-.31c.12-.57.21-1,.25-1.09a.64.64,0,0,1,.14-.1l.08,0c.18-.06.4-.14.44-.32.11-.53-2.15-1.26-2.18-1.26a.19.19,0,0,0-.25.17l0,.09a7.49,7.49,0,0,1-.1,1.24l-.09.48c0,.14,0,.29-.08.44L143,18.89l0,0a7.51,7.51,0,0,0-1.7-1.18.17.17,0,0,0-.22.14v.11a8.78,8.78,0,0,1-.28,2.28c-.27,1.34-.68,3.17-1,4.32l0,.06a.7.7,0,0,0,.17.62,1,1,0,0,0,.56.3,1.23,1.23,0,0,0,.88-.14.71.71,0,0,0,.31-.46l0-.18a.69.69,0,0,1,0-.13l4.92,1-.07.34A.6.6,0,0,0,146.67,26.43Zm.55-3.57L146.78,25l-1.65-.34.43-2.13Zm-1.54-.92c.06-.32.13-.63.19-.94s.13-.58.18-.85l1.54.31.09,0a.31.31,0,0,1,0,.13l-.34,1.66Zm-3-2.29v0a.45.45,0,0,1,0-.08l.09,0,1.41.28-.36,1.79-1.52-.3C142.55,20.47,142.69,19.78,142.73,19.65Zm1.05,2.51-.44,2.13-1.49-.3c.11-.64.27-1.41.42-2.14Z"/><path class="cls-3" d="M163.27,24.11l.17.06.07,0-.51,1.4-.09.22A7,7,0,0,1,158,30l-.15,0c-.37.09-.5.13-.55.24s0,.14.12.2a3.09,3.09,0,0,0,.67.1h.43a6.38,6.38,0,0,0,5.89-4,5.72,5.72,0,0,0,.22-.63l0-.21c.13-.46.25-.89.4-1.33,1.34.1,2.35-.26,2.63-.95s-.6-1.12-.89-1.24a3.65,3.65,0,0,1-.55-.29l0,0a1.73,1.73,0,0,0-1-2,1.17,1.17,0,0,0-1,0,1,1,0,0,0-.5.4c-.08.21.14.31.24.36l.07,0c.54.3.54.32.09,1.47l-.17.42-.4-.13-.21-.08a3,3,0,0,1-1.35-1,.89.89,0,0,0-.27-.28.24.24,0,0,0-.15,0,.23.23,0,0,0-.13.14,1.92,1.92,0,0,0,.05,1.37A2.81,2.81,0,0,0,163.27,24.11Zm2.48-1.21.29-.51c.11.11.2.23.16.33S166.12,22.87,165.75,22.9Z"/><path class="cls-3" d="M156.55,28.5a.81.81,0,0,0,.31.06.8.8,0,0,0,.3-.06.87.87,0,0,0,.44-.48,1.28,1.28,0,0,0,.09-.53,2.62,2.62,0,0,1,.21-1l0-.11h0a12.07,12.07,0,0,1,2.13-3.28,2.81,2.81,0,0,0,.58-.74.18.18,0,0,0,0-.1.14.14,0,0,0-.09-.13c-.28-.12-2.34,1.71-3,2.32a4.4,4.4,0,0,1,.18-.51,7,7,0,0,1,1.77-2.41,3,3,0,0,0,.69-.93A2.41,2.41,0,0,0,159,17.94c-.37-.15-1-.11-1.11.13s.14.44.38.65a1.18,1.18,0,0,1,.41,1.25,5.87,5.87,0,0,1-.42.74l-.16.26-.43.71a18.22,18.22,0,0,0-1.47,2.73C155.45,26.39,155.58,28.11,156.55,28.5Z"/><path class="cls-3" d="M172.06,37.37a3.06,3.06,0,0,0,3.2-.1,2.73,2.73,0,0,1,.13.9,1.24,1.24,0,0,0,.49,1.14.81.81,0,0,0,.42.12,1,1,0,0,0,.83-.49c.47-.77.13-2-.88-3.2.32-.84.55-1.42.81-2,1.09.28,2.87.58,3.39-.3.24-.39.05-.83-.5-1.18a4.75,4.75,0,0,1-1-.86c.62.15,1.5.22,1.89-.43.06-.1.34-.65-.41-1.1a1,1,0,0,0-.48-.14l.43-.39c.55-.5.59-.53.64-.62a1.49,1.49,0,0,0,.07-1.05,1.85,1.85,0,0,0-.65-1.09,1.17,1.17,0,0,0-.89-.08,1.28,1.28,0,0,0-.6.29c-.1.17,0,.32.2.46.38.37.4.56.14,1-.16.26-.4.59-.71,1l-.12.18a2.91,2.91,0,0,1-.35-.18,3.59,3.59,0,0,1-1.21-1.49.67.67,0,0,1-.06-.12.51.51,0,0,0-.16-.21q-.18-.11-.33.15c-.7,1.16-.28,2.29,1.18,3.2-.27.41-.53.83-.76,1.21a8.11,8.11,0,0,1-1.43-.69,6.83,6.83,0,0,1-1.71-1.45l-.05-.09a.49.49,0,0,0-.16-.21s-.15-.08-.25.08a1.69,1.69,0,0,0-.11,1.17,3.34,3.34,0,0,0,1.69,1.94,8.49,8.49,0,0,0,1.16.6l.05,0a1.28,1.28,0,0,0-.11.2c-.12.2-.24.41-.34.62s-.16.3-.28.52l-.54-.38a4.41,4.41,0,0,0-2-.63,1.74,1.74,0,0,0-1.62.72,1.72,1.72,0,0,0-.16,1.33A2.62,2.62,0,0,0,172.06,37.37Zm-.38-2.58a.42.42,0,0,1,.3-.21.58.58,0,0,1,.19,0,3.41,3.41,0,0,1,1.44.51h0a3.41,3.41,0,0,1,.88.79,1.79,1.79,0,0,1-2.18,0C171.86,35.62,171.48,35.11,171.68,34.79Zm7-2.51c-.06.1-.33.1-.87,0l0-.05a9,9,0,0,1,.63-.93,1.11,1.11,0,0,0,.09.25C178.8,32.07,178.7,32.26,178.68,32.28Z"/><path class="cls-3" d="M188,46.87a4.67,4.67,0,0,0,3.72-1.61,2.68,2.68,0,0,0,.73-2c.16-.21.38-.49.66-.82s.4-.47.64-.72c.25.18.48.36.71.56a7.52,7.52,0,0,1,1.84,2.13,1.88,1.88,0,0,0,.42.54.81.81,0,0,0,.6.22.65.65,0,0,0,.49-.27,1.2,1.2,0,0,0,.12-1.27,3,3,0,0,0-.62-.84l-.22-.23a13.77,13.77,0,0,1-1.35-2,1,1,0,0,0-.21-.27.34.34,0,0,0-.16-.08l.06,0a4.22,4.22,0,0,0,.43-.4,1.17,1.17,0,0,0,.29-.87,1.64,1.64,0,0,0-.51-1,1.7,1.7,0,0,0-1.1-.36.39.39,0,0,0-.25.09c-.1.12,0,.27,0,.5v.06c.14.43.14.63-.08.89l-.81,1c-1.3-.86-2.62-1.69-3.32-2.11l0,0c-.13-.09-.41-.28-.67-.5-.43-.37-.6-.63-.61-.74,0-.36,0-.52-.14-.6s-.64.28-.76.42a1.7,1.7,0,0,0,.45,2.35,3.83,3.83,0,0,0,1.26.66A15.23,15.23,0,0,1,192.67,41c-.28.35-.54.67-.76,1a1.69,1.69,0,0,0-.26-.27,1.59,1.59,0,0,0-1.35-.36,2.17,2.17,0,0,0-1.28.78,4,4,0,0,0-.75,2.19,1,1,0,0,0,.35.74l.2.15a5.72,5.72,0,0,1-3.37.49c-.95-.22-1-.15-1.07-.08s-.09.12.07.25A6.39,6.39,0,0,0,188,46.87Zm1.94-4.47a.59.59,0,0,1,.37-.24h0a.27.27,0,0,1,.2.08c.29.24.21.75.16,1a1.72,1.72,0,0,1-.2.3c-.33.39-.61.38-.77.25S189.53,42.85,189.91,42.4Zm5.56-.83-.07,0c-.23-.18-.52-.38-.82-.59.17-.16.36-.31.55-.47h0a.85.85,0,0,0,.09.39,7.16,7.16,0,0,1,.27.75Z"/><path class="cls-3" d="M94.13,76.76a.65.65,0,0,0,.18,0c6.59-1.21,7.75-5,8-8.51H105c0,2.2,0,5-.08,6.45l0,.82v0c0,.55.45.9,1.17.9s1.48-.43,1.48-1v0c0-.45-.14-4.45-.14-7.18h5.07c.44,0,.51-.22.51-.34,0-.62-1.66-2.09-2.22-2.29a.32.32,0,0,0-.16,0c-.3,0-.51.27-1.53,1.81a.48.48,0,0,1-.32.15h-1.35c0-2,.07-2,.27-2.08s.67-.28.67-.56c0-.59-3.3-1-3.44-1s-.26.11-.26.22a.26.26,0,0,0,0,.11,11.53,11.53,0,0,1,.33,3.36h-2.62v-.18c0-.47,0-.87,0-1.59,0-.11,0-.13.26-.27s.54-.33.54-.56c0-.61-3-.84-3.36-.86l.92-.15c2.28-.39,4.87-.84,7-1.38.06.09.11.18.16.27l.07.13a2.33,2.33,0,0,0,1.81,1.35,1.42,1.42,0,0,0,1.33-1.5c0-1.94-2.59-2.73-5.39-3.29a1.58,1.58,0,0,0-.4-.07c-.08,0-.17,0-.17.13s.08.16.26.33l.08.07a10.59,10.59,0,0,1,1.6,1.67c-2.25.17-4.12.28-5.69.33a29,29,0,0,0,2-2.18.54.54,0,0,1,.51-.27c.71,0,.78-.3.78-.43,0-.74-3.22-1.77-3.79-1.77a.16.16,0,0,0-.18.17s0,.05,0,.07a.33.33,0,0,1,0,.12.94.94,0,0,1,0,.25A22.61,22.61,0,0,1,99.93,62H98.77a16.79,16.79,0,0,1-2.71-.18.52.52,0,0,0-.19,0s-.15,0-.15.16,1,2.73,1.59,2.73a.46.46,0,0,0,.3-.15.39.39,0,0,1,.19-.1h0c.55-.11,1.16-.22,1.82-.33a.17.17,0,0,0-.08.16.44.44,0,0,0,0,.14l0,.06a18.3,18.3,0,0,1,.26,3c-2.41-.06-4.26-.16-5.35-.28l-.1,0v.1c0,.29.61,1.11,1,1.11h0c1.17-.12,3-.16,4.39-.18-.15,4.07-2,6.78-5.62,8-.29.11-.43.18-.43.31S94,76.76,94.13,76.76Z"/><path class="cls-3" d="M117.24,60.58l.08.07a9,9,0,0,1,2,2.94l.08.15a1.61,1.61,0,0,0,1.41,1.05,1.45,1.45,0,0,0,1.4-1.5c0-2.35-4-3.17-5-3.17-.11,0-.24,0-.24.13S117,60.38,117.24,60.58Z"/><path class="cls-3" d="M117.65,75.22h0c2-.1,6.08-.23,7.3-.23h4.12a.86.86,0,0,0,0,.16,1.21,1.21,0,0,0,0,.19v0c0,.64.49,1.05,1.25,1.05s1.55-.41,1.55-1.17v-.1c-.1-1.21-.23-4.82-.23-6.54,0-1.05.05-1.12.28-1.22.44-.22.72-.4.72-.66,0-.58-2.23-1.73-2.57-1.73-.17,0-.39.24-.95,1,0,0-.11.2-.28.2h-3.26c0-5.54,0-6.95.3-7,.48-.18.76-.43.76-.69,0-.78-3.67-1.11-3.71-1.11a.16.16,0,0,0-.17.19.62.62,0,0,0,0,.17c.27,1.19.31,3.47.31,8.45-3.36-.07-5.49-.17-6.32-.29l-.11,0V66c0,.37.73,1.2,1,1.2h0c.69,0,6.2-.15,7.37-.15h3.68c.27,0,.33,0,.35.27,0,.62,0,1.64,0,2.72h-2.37a89.56,89.56,0,0,1-9-.38h-.1v.1c0,.34.74,1.25,1.1,1.25,1.92-.14,6.77-.22,8-.22h2.37c0,1.42,0,2.83,0,3.46H125a81,81,0,0,1-8.4-.31h-.1V74C116.45,74.4,117.33,75.22,117.65,75.22Z"/><path class="cls-3" d="M125.84,65.08a.14.14,0,0,0,.15.13c.49,0,3.17-1.77,5.08-3.23.18-.16.26-.23.46-.23a.68.68,0,0,1,.19,0,2.13,2.13,0,0,0,.33,0c.55,0,.63-.23.63-.38,0-.62-2.68-2.42-3.13-2.42-.11,0-.14.1-.17.19a.56.56,0,0,1,0,.12l0,.07a9.28,9.28,0,0,1-.45,1.17,25.63,25.63,0,0,1-2.79,4.16C125.92,64.86,125.84,65,125.84,65.08Z"/><path class="cls-3" d="M138.36,71.65c.53,1,1.09,2,2.14,2,2.37,0,5.5-5.13,5.5-9a4.63,4.63,0,0,0-.87-3l.33,0h.29a5.48,5.48,0,0,1,5.46,5.61,7.3,7.3,0,0,1-1.58,4.38,11,11,0,0,1-5.14,3.24c-1,.27-1.06.32-1.06.44s.24.15.36.15c1.15,0,5-.48,7.28-2.58a7.54,7.54,0,0,0,2.57-5.57,6.53,6.53,0,0,0-2-4.73A7.93,7.93,0,0,0,146,60.49a8.47,8.47,0,0,0-8.65,8.23,3.64,3.64,0,0,0,.54,2.09C138,71.07,138.19,71.35,138.36,71.65Zm5.38-9.77a1.4,1.4,0,0,0,.24-.06h0s.08,0,.1,0c.3,0,.48.76.48,1.5,0,2.9-2.5,7.57-4.06,7.57-.5,0-1.66-1.18-1.66-3.12A6.35,6.35,0,0,1,143.74,61.88Z"/><polygon class="cls-3" points="70.57 97.21 97.63 97.21 97.63 118.24 69.57 118.24 69.57 128.29 107.67 128.29 107.67 87.16 70.57 87.16 70.57 97.21"/><polygon class="cls-3" points="120.34 86.16 112.14 106.08 123.01 106.08 127.07 96.21 144.91 96.21 140.03 104.82 128.15 104.84 124.01 114.3 134.43 114.19 125.36 129.85 136.98 129.85 162.38 86.16 120.34 86.16"/><path class="cls-3" d="M92.25,218.45a1.52,1.52,0,0,0,.64-1.19c0-1-.86-1.52-2.36-1.52l-.73,0-1,0-.4,0c-.1,0-.16.09-.16.2a.23.23,0,0,0,.1.21.44.44,0,0,0,.22.05c.14,0,.26,0,.34.2a22.66,22.66,0,0,1,0,2.79v1.21a5.29,5.29,0,0,1,0,.53V221c0,.31-.14.33-.44.37l-.11,0h0l0,0s-.06.12-.06.17.08.24.2.24h0a9.15,9.15,0,0,1,1.47,0h.57c2.5,0,2.77-1.33,2.77-1.91A1.65,1.65,0,0,0,92.25,218.45Zm-1.4,3c-.56,0-.61,0-.61-1.83,0-.23,0-.44,0-.6v-.23h.39a1.25,1.25,0,0,1,1.3,1.35A1.24,1.24,0,0,1,90.85,221.43Zm-.3-3.11h-.3v-1.6c0-.17,0-.32,0-.39s0-.17.29-.17h0c.86,0,1,.75,1,1.21A.91.91,0,0,1,90.55,218.32Z"/><path class="cls-3" d="M99.89,220.1a.18.18,0,0,0-.13.06,2.18,2.18,0,0,1-2.09,1.24h-.24c-.53,0-.54-.2-.55-.64,0-.05,0-.11,0-.17,0-.49,0-1,0-1.22V219a.42.42,0,0,0,0-.16H97c.72,0,1.28.05,1.32.66,0,.08,0,.16.2.16a.23.23,0,0,0,.25-.2v0c0-.37,0-.72,0-1a3.57,3.57,0,0,1,0-.66.11.11,0,0,0,0-.1.32.32,0,0,0-.22-.1.18.18,0,0,0-.19.16c-.08.63-.62.66-1.49.66v0c0-1.28,0-1.62,0-1.73v0c0-.3.06-.37.54-.37.83,0,1.42.17,1.62,1a.2.2,0,0,0,.19.15.22.22,0,0,0,.23-.19c0-.12,0-.25,0-.38s0-.43,0-.62a.92.92,0,0,1,0-.16s0,0,0,0v0c0-.2-.17-.2-.23-.2H99c-.4,0-1.28,0-2.24,0-.63,0-1.41,0-1.79,0-.09,0-.16.08-.16.2a.27.27,0,0,0,.11.22h0c.34,0,.52,0,.53.25,0,.46,0,1.12,0,2.44,0,.56,0,2,0,2.23s-.08.29-.51.33h0a.27.27,0,0,0-.1.22c0,.13.06.21.17.21.31,0,.84,0,1.57,0,1.25,0,2.65,0,2.66,0s.27,0,.34-.21l.19-.42c.14-.3.31-.67.38-.88v0C100.16,220.21,100,220.1,99.89,220.1Z"/><path class="cls-3" d="M107.83,215.74h0a6.69,6.69,0,0,1-.8,0c-.31,0-.67,0-1,0h0s-.14,0-.14.2a.22.22,0,0,0,.09.2h0c.67.08.73.25.74,1.1v.38c0,.3,0,.72,0,1.13,0,.26,0,.51,0,.74-.23-.25-.5-.51-.75-.77l-.43-.43c-.59-.6-1.2-1.22-1.68-1.76l-.16-.17-.07-.08a.77.77,0,0,1-.15-.28c0-.12-.1-.27-.31-.27h-.06a10.24,10.24,0,0,1-1.45,0,.21.21,0,0,0-.19.22.23.23,0,0,0,.11.19h0a.72.72,0,0,1,.62.69v2.8c0,1.72,0,1.72-.61,1.79h0c-.07.05-.08.19-.08.21,0,.19.13.2.16.2h0a7.55,7.55,0,0,1,1.78,0h0c.08,0,.16-.1.16-.21a.26.26,0,0,0-.1-.18l0,0h0c-.57-.09-.66-.1-.72-.91,0-.47,0-2.15-.06-3.27l1.43,1.51.8.84a25.93,25.93,0,0,1,1.85,2.08.3.3,0,0,0,.24.11s.29-.05.29-.22h0c-.07-.68-.11-2.31-.11-3.5,0-.35,0-.66,0-.82v-.48c0-.34,0-.55.63-.62l0,0a.22.22,0,0,0,.09-.2C108,215.81,107.91,215.74,107.83,215.74Z"/><path class="cls-3" d="M115,215.39a.18.18,0,0,0-.13.05c-.32.31-.52.36-2.53.36l-1.69,0c-.22,0-.53,0-.61-.25,0-.06-.08-.09-.19-.09s-.23.09-.23.19a4.61,4.61,0,0,1-.23,1.1c-.05.19-.1.36-.13.49v0s0,.16.22.16c0,0,.15,0,.19-.09a2.25,2.25,0,0,1,1.2-1.08,3.5,3.5,0,0,1,.56,0c.13,0,.2,0,.21.2s0,1,0,2.22c0,.63,0,1.23,0,1.68,0,1,0,1-.78,1.14h0a.31.31,0,0,0-.12.23.16.16,0,0,0,.17.17h0a8,8,0,0,1,1.12-.06c.68,0,1.39,0,1.66.06h0a.15.15,0,0,0,.16-.17.29.29,0,0,0-.1-.22l0,0h0c-.77-.08-.77-.3-.77-1.12v-3l0-.92c0-.22,0-.22.22-.22.94,0,1.39.3,1.57,1a.15.15,0,0,0,.16.12c.25,0,.25-.21.25-.43v-.27a2.44,2.44,0,0,1,0-.27,6.2,6.2,0,0,1,0-.78v0A.2.2,0,0,0,115,215.39Z"/><path class="cls-3" d="M120.24,215.62a3.27,3.27,0,0,0-3.4,3.2A3.16,3.16,0,0,0,120.2,222a3.12,3.12,0,0,0,3.37-3.15A3.16,3.16,0,0,0,120.24,215.62Zm0,5.9c-1.55,0-2-1.83-2-2.91,0-1.27.58-2.55,1.86-2.55,1.55,0,2,1.87,2,3C122.12,220.59,121.43,221.52,120.27,221.52Z"/><path class="cls-3" d="M138.21,221.43a.83.83,0,0,1-.69-.4c-1.6-2.1-2.17-2.84-2.29-3a17.9,17.9,0,0,1,1.87-1.49,2,2,0,0,1,.75-.34h0a.28.28,0,0,0,.13-.23.19.19,0,0,0-.19-.2h0a6.39,6.39,0,0,1-.68,0c-.18,0-.47,0-.82,0h0a.18.18,0,0,0-.18.2.26.26,0,0,0,.12.22l0,0h0a.42.42,0,0,1,.17,0v0a21.62,21.62,0,0,1-2.22,2v-.8c0-1.09,0-1.18.57-1.25h0a.26.26,0,0,0,.1-.22c0-.11-.06-.19-.16-.19h0a8.2,8.2,0,0,1-1,0c-.54,0-1.08,0-1.35,0h0a.18.18,0,0,0-.17.2.25.25,0,0,0,.12.22l0,0h0c.55,0,.56.22.56.79v.09c0,.33,0,1.18,0,2,0,.61,0,1.18,0,1.52,0,.56,0,.78-.58.85l0,0a.26.26,0,0,0-.11.22.17.17,0,0,0,.18.19h0a5,5,0,0,1,.91-.06c.55,0,1.14,0,1.44.06h0a.21.21,0,0,0,.18-.21.24.24,0,0,0-.11-.2l0,0h-.1c-.46,0-.5-.06-.51-.84,0-.09,0-.29,0-.52V219c0-.07,0-.1,0-.1s0,0,.06.06l.83,1.14a11.88,11.88,0,0,1,.88,1.26c0,.07-.11.12-.29.13h0a.24.24,0,0,0-.13.21.2.2,0,0,0,.19.2h0a6.7,6.7,0,0,1,.91-.05c.56,0,1.16,0,1.46.05h0a.18.18,0,0,0,.2-.18A.28.28,0,0,0,138.21,221.43Z"/><path class="cls-3" d="M143.17,215.62a3.28,3.28,0,0,0-3.41,3.2,3.16,3.16,0,0,0,3.37,3.15,3.12,3.12,0,0,0,3.37-3.15A3.16,3.16,0,0,0,143.17,215.62Zm0,5.9c-1.55,0-2-1.83-2-2.91,0-1.27.58-2.55,1.87-2.55,1.54,0,1.95,1.87,1.95,3C145,220.59,144.35,221.52,143.19,221.52Z"/><path class="cls-3" d="M153.64,215.39a.19.19,0,0,0-.13.05c-.31.3-.53.36-2.53.36l-1.69,0c-.22,0-.53,0-.61-.25q0-.09-.18-.09c-.14,0-.23.07-.23.19a5.28,5.28,0,0,1-.23,1.1,3.3,3.3,0,0,0-.13.49v0s0,.16.21.16c0,0,.15,0,.19-.09a2.23,2.23,0,0,1,1.21-1.08,4,4,0,0,1,.55,0c.14,0,.2,0,.21.2s0,1,0,2.22v1.68c0,1,0,1-.78,1.14h0a.31.31,0,0,0-.12.23.17.17,0,0,0,.18.17h0a8,8,0,0,1,1.12-.06c.69,0,1.39,0,1.66.06h0a.15.15,0,0,0,.15-.17.29.29,0,0,0-.1-.22l0,0h0c-.77-.08-.77-.3-.77-1.12,0-.19,0-.48,0-.8v-1.34c0-.36,0-.68,0-.84l0-.92c0-.22,0-.22.23-.22.93,0,1.39.3,1.56,1a.16.16,0,0,0,.17.12c.24,0,.24-.21.24-.43v-.54c0-.21,0-.64,0-.78v0A.2.2,0,0,0,153.64,215.39Z"/><path class="cls-3" d="M161.28,221.46h-.05a1,1,0,0,1-.67-.63c-.37-.92-1-2.62-1.55-4a10.32,10.32,0,0,1-.35-1.1c0-.19-.13-.23-.2-.23a.28.28,0,0,0-.2.13,1.34,1.34,0,0,1-.51.4l0,0a.27.27,0,0,0-.15.23.36.36,0,0,0,0,.1v0a0,0,0,0,1,0,0,.13.13,0,0,1,0,0c-.27.72-.58,1.57-.86,2.34-.91,2.54-1,2.55-1.44,2.61h0a.31.31,0,0,0-.12.22.19.19,0,0,0,.21.19h0l0-.09h0l0,.09a4.35,4.35,0,0,1,.74-.06,6.26,6.26,0,0,1,.75.05h0a.18.18,0,0,0,.18-.19.27.27,0,0,0-.13-.22l-.06,0c-.3,0-.44-.09-.44-.2v0c0-.14.22-.69.37-1.14l.19-.6c0-.1,0-.11.68-.11l.88,0,0,0c.17.41.61,1.7.62,1.83s0,.15-.37.19h0a.29.29,0,0,0-.12.22.15.15,0,0,0,.16.16h0a7.71,7.71,0,0,1,.9-.05c.53,0,1,0,1.27.06h0c.23,0,.25-.15.25-.19a.49.49,0,0,0,0-.16Zm-2.86-2.59h-1.15c.21-.67.44-1.39.55-1.67.08.19.17.45.26.71S158.32,218.62,158.42,218.87Z"/></g></g></svg>