<svg xmlns="http://www.w3.org/2000/svg" viewBox="0 0 450.59 121.64"><defs><style>.cls-1{fill:#fff}</style></defs><g id="レイヤー_2" data-name="レイヤー 2"><g id="レイヤー_1-2" data-name="レイヤー 1"><path class="cls-1" d="M387.41 69c4.86-8.35 7.18-17.5 8.61-27.24a2 2 0 00-1 1.44 4.33 4.33 0 01-1.59 2.8c-.57.43-.4 1.25-.76 1.78-1.46 2.08-3.14 3.91-5.7 4.69a5.48 5.48 0 01-5.8-2.51 16.79 16.79 0 01-1.75-12 30.61 30.61 0 013.74-9.26 25 25 0 015.33-6 5.8 5.8 0 014.43-1c1.41.15 1.85-.24 1.38-1.62-.15-.46 0-1-.28-1.47s-.56-.88-1.28-.72a76.17 76.17 0 00-10.52 2.69 7.06 7.06 0 01-2.21.37 10.45 10.45 0 00-5.07 1.77c-.7.43-1.75.85-2.14.11s.47-1.61 1.16-2a12.82 12.82 0 012.89-1.25 80.66 80.66 0 018.66-2.52c1.6-.31 3.14-1.4 5-.74a3.79 3.79 0 002.11-1.11c.36-.51 0-1.44-.43-2.1a3.09 3.09 0 01-.76-2.09c0-.45-.06-1 .46-1.17a1.35 1.35 0 011.37.43 5.32 5.32 0 01.6 1c1.59 2.78 3.34 3.4 6.53 2.7a61 61 0 016.22-.73c.79-.09 1.49-.12 1.57 1s-.13 1.84-1.28 2a34.63 34.63 0 01-4.64.5 31.39 31.39 0 00-4.65.15c-1.25.19-1.71.61-1.46 2 .57 3.11 1.24 6.2 2.09 9.23s.53 6 .29 9a92.58 92.58 0 01-1.07 9.4 73.77 73.77 0 01-4.34 15.81c-1.24 2.86-2.2 5.92-4.14 8.46-.47.62-.92 1.26-1.38 1.89-1 1.39-1.85 1.32-2.61-.22-.41-.84.38-4.81 1.1-5.43.54-.46.72 0 .78.38s.07 1.08.11 1.62zm7.66-40.82v-.45a4 4 0 00-1-3.15c-1.12-1.22-2.05-.36-3-.18a4.36 4.36 0 00-3.17 1.82c-1.08 1.81-2.75 3.14-3.77 5-.46.83-.46 1.71-.89 2.52-2.5 4.7-3 9.56-.52 14.4.89 1.72 2.78 2.76 4.51 1.78a13.22 13.22 0 005.83-7.4 33.75 33.75 0 002.01-14.39zM286.06 42.84a1.79 1.79 0 00-2.48-1.8c-4.24 1.19-8.48 2.39-12.7 3.69-.83.25-1.05.39-1.2-.65-.3-2-.82-4-1.26-5.94-.2-.87-.74-1.42-1.63-1.27s-.76 1-.69 1.63a62.74 62.74 0 00.88 6.86c.2.92-.09.89-.66 1.17a59.87 59.87 0 00-7.25 4.16c-.32.21-.47.78-1 .43s-.46-.82-.45-1.3c0-1.39.11-2.78.08-4.17 0-.5.29-1.3-.78-1.29-.92 0-1.85.48-1.68 1.25.34 1.47-.41 2.76-.27 4.2.31 3 .45 6.12.93 9.16a40.51 40.51 0 002.78 9.9c.7 1.59 1.58 3.12 2.22 4.73a4.53 4.53 0 00.83 1.76 2 2 0 00.45.5.78.78 0 00.71.1.81.81 0 00.46-.48v-.11a.19.19 0 000-.08v-.5.06-.07a2 2 0 00-.05-.24c0-.15-.08-.29-.12-.43-.14-.42-.31-.83-.47-1.23a8.45 8.45 0 01-1.07-2 16.26 16.26 0 01-1.43-3.45 17.62 17.62 0 01-.9-3.57c.82.09 1.49.89 2.41.47 0-.08.06-.22 0-.27-1.59-1.66-1.57-1.94.45-3 1.63-.81 3.3-1.56 5-2.29s1.84-.32 2.35 1.22.37.09.61 1.67a8.14 8.14 0 01-.65 4.85c-.54 1-2.06 1.4-3.27 2a.5.5 0 00-.13 0H266s.08 0 0 0l-.15.06-.35.12c-.22.06-.44.1-.66.14a1.43 1.43 0 00-1.16.76 3 3 0 00-.13 1.59c0 .11 0 .22.06.33a.58.58 0 00.54.43 1.76 1.76 0 00.63-.12c.16-.07.32-.16.48-.24h.14a1.38 1.38 0 00.43-.15h.05c2-1.07 4.13-2.08 6.15-3.19 2.67-1.47 5.47-2.73 7.93-5.12-2.78-.14-4.88 1.11-7.28 1.77-.36-2.84-.07-2.56-.9-5.33-.39-1.32-.11-2.82 2-2.65a3.34 3.34 0 001.34-.4c1.36-.63 3 .41 4.29-.89.4-.42 1.23-.72 1-1.3a1.51 1.51 0 00-1.61-1.11 5.34 5.34 0 00-1.35.11c-1.69.56-3.45.92-5.17 1.42a1 1 0 01-1.48-1.14c.29-1.68-.47-3.18-.51-4.78a1.43 1.43 0 011.13-1.69 108.85 108.85 0 0111.78-3.38c-.27 4.08-.06 8-.66 12-.81 5.36-1.44 10.74-3 15.94-.22.71-.43 1.57.33 2s1.21-.23 1.8-.65c1.52-1.09 1.31-2.9 1.69-4.31.94-3.57 1.34-7.28 2-10.92.94-4.96.81-9.97.7-14.97zm-18.51 13.09a26.94 26.94 0 00-8.94 5.24c-.27-2.25-.53-4.34-.77-6.42-.13-1.12.87-1.3 1.52-1.73a45.62 45.62 0 017.91-4.3c.86 2 .63 4.2 1.22 6.27.22.78-.4.75-.94.94z"/><path class="cls-1" d="M268.61 25c1.74 1.85 1.62 2.34-.51 3.29-3.05 1.35-6.1 2.71-9.1 4.11a1.28 1.28 0 01-.7.16c-3.36-.6-3.1 2.19-3.64 4-1.56 5.25-3.08 10.52-4.39 15.84-1.05 4.3-1.84 8.67-2.62 13-.84 4.65-1.56 9.33-2.3 14-.92 5.9-1.8 11.8-2.72 17.7-.13.82-.1 1.78-.8 2.36-.36.3-.86.74-1.47.43s-.61-.9-.56-1.44c.21-2.16.4-4.32.73-6.46.86-5.68 1.65-11.38 2.73-17q1.68-8.85 3.51-17.66c1.63-7.83 3.87-15.48 5.89-23.2.83-3.17 1.88-6.28 2.83-9.41.08-.27.43-.53.06-.79a.76.76 0 00-.85.07c-.81.52-1.64 1-2.43 1.54-.63.45-1.25.58-1.77 0s0-1.15.42-1.55a21.36 21.36 0 016.08-3.47 49.87 49.87 0 0115.38-3.6c.87-.07 1.74-.34 2.64-.42s1.15.44 1.5 1-.23 1-.56 1.33a41.33 41.33 0 01-7.35 6.17zm-11.69 5c4.55-3.61 9.63-6.39 13.72-10.47-.92.13-1.75.21-2.56.37-3.16.61-6.37 1.06-9.26 2.61-.25.14-.89-.06-.72.51.74 2.47-1.25 4.44-1.18 6.98zM35.56 80.26c3.87-1.64 7.11-3.53 10.84-4.25 1.52-.3 2.08.24 2.07 1.64a23.23 23.23 0 01-1 6.44c-.81 2.76-2 5.37-3 8-.36 1-.22 1.28.85 1.62a28.3 28.3 0 0016.34.29c.38-.1.82-.56 1.19.06s-.38.71-.61 1a7.78 7.78 0 01-5.66 2.91 31.45 31.45 0 01-13.36-1.5c-.91-.3-1.22 0-1.66.77-2.84 5-6.05 9.65-10.49 13.4a4.31 4.31 0 01-1.72 1c-.44.11-1.1.23-1.38-.2s.06-.94.39-1.34c2.82-3.44 5.69-6.84 8.42-10.34A47.52 47.52 0 0039.72 95a18.49 18.49 0 01-8.4-7.88c-4 6.25-7.45 12.71-11.56 18.8-3.07 4.54-5.86 9.28-8.73 14-.58.94-1 2.35-2.33 1.58-1-.63-.84-1.94-.21-3.09 2.37-4.32 5.1-8.4 7.81-12.5a63.56 63.56 0 004.18-6.76c1.29-2.61 3.18-4.9 4.63-7.44 2.34-4.12 4.95-8.07 7.55-12a32 32 0 012.87-3.41c.51-.57 1-.39 1.56 0s.65.84.13 1.46a24.87 24.87 0 00-1.66 2.5zm10.37-2.13a110.36 110.36 0 00-11.35 4.6c-.85.37-2 1.21-1.43 1.88 1.79 2.23 3.29 4.76 5.75 6.39 2.06 1.37 2.38 1.22 3.51-1.14a46.16 46.16 0 003.18-8.74c.24-.94.85-1.78.34-2.99zm142.15-13.61a5.44 5.44 0 01.73 1.82c.4 1.41-.49 1.89-1.41 1.74s-1.89.44-2.91 0c-.84-.41-1.15.45-1.47 1.14a33.65 33.65 0 01-3.64 6.29c-1.14 1.48-2.27 1.23-3-.46-1.45-3.3-2.51-6.66-1.66-10.33a1.46 1.46 0 00-.52-1.72 14.11 14.11 0 01-4.41-7.77 1.68 1.68 0 01.46-1.71 1.29 1.29 0 011.64 1c.4 2.25 1.79 4 2.92 5.84.66 1.08 1.25 1.36 2.15.28a13.13 13.13 0 019.79-4.64c1.75-.11 2.08-1.64 3-2.52a7.8 7.8 0 012.57-1.78c.85-.31 1.53-.09 1.74.61a1.12 1.12 0 01-.92 1.42c-1.12.17-1.52 1.22-2.08 2s.41.86.75.95a6.19 6.19 0 014.83 4.29 14 14 0 01.53 5.52c-.17 4.28-2.5 7.51-5.04 10.51a11.93 11.93 0 01-4.39 3c-.26.12-.6.3-.84.23-.67-.19-1.67 0-1.93-.69s.77-.66 1.19-1a21.35 21.35 0 007.94-10 10.67 10.67 0 00-.2-7.55c-.44-1.15-3.14-2.38-4.4-2.24-1.08.13-1.29 1.24-1.62 1.81a31.52 31.52 0 00-1.88 3.53c-.18.45-.84.92-.2 1.38a1.12 1.12 0 001.71-.41c.12-.18.08-.49.57-.54zm-2-5.77a7.53 7.53 0 00-5.51 2.11c-2.77 2.42-2.75 2.63.58 3.89a1.24 1.24 0 001.83-.6c1.02-1.71 1.8-3.55 3.07-5.4zm-7.7 13.53c.81-1.27 1.15-2.81 2.32-3.82-.56-.37.91-1.12-.17-1.27a8.2 8.2 0 01-2.1-1c-1-.43-1.49-.27-1.35.91.18 1.79.08 3.61 1.27 5.18zm-16.72 6.43a18.24 18.24 0 01-7.48 4.47 43.76 43.76 0 01-10.72 1.92 85 85 0 01-16.57-.1 5.59 5.59 0 00-5.78 2.88c-.62 1.07-1.42 1.22-2.23.76-1-.58-.44-1.53 0-2.22q2.58-4 5.26-8c1.4-2.1 1.42-2.11-.58-3.43-1.25-.82-1.7-3-.94-5.17a25.5 25.5 0 012.66-5.85 6.11 6.11 0 00.48-1.48 16 16 0 00-5 3.35 76.76 76.76 0 00-8.07 8.06c-.12.14-.27.26-.4.39-.68.66-1.66 1.51-2.37.79s.34-1.57.88-2.23a58.39 58.39 0 018.27-8.66A47 47 0 01128.4 58c1.25-.59 1.76.13 1.91 1.1a4.12 4.12 0 01-1 3.16 32.29 32.29 0 00-4.31 8.65 1.82 1.82 0 001.27 2.58c1.73.55 2 1.81 1.48 3.37a14.86 14.86 0 01-2.07 4 1.13 1.13 0 00-.29 1.26c.29.79.72.17 1 .16 3.66-.07 7.27.47 11 .34a121.48 121.48 0 0016-1.71 37.76 37.76 0 008.27-2.2zm202.16-33.22a3.51 3.51 0 01-.53.22c-3.74.79-3.68.79-3.71 4.6a19 19 0 01-.62 4.43c-.46 1.87-1.84 2.43-3.69 1.77a10.05 10.05 0 01-5.62-4.07c-1.23-2-.5-5 1.67-5.81 1.45-.53 2.69-1.55 4.28-1.73.7-.07 1-.5.82-1.27-.19-1.05-.25-2.12-.38-3.28-.92.07-1.5.74-2.24 1a2 2 0 01-2.22-.29c-.73-.69.1-1.22.43-1.79a8.67 8.67 0 012.26-2.22 2.86 2.86 0 001.27-2.91c-.14-1.73-.88-1.41-1.76-1.12a51.94 51.94 0 00-5.78 2.29c-.94.46-2 .42-2.26-.2-.38-.83.55-1.36 1.39-1.69 2.38-.94 4.65-2.19 7.19-2.69 1.42-.27 1-1.41.88-2.2a6.72 6.72 0 01.14-1.92c0-.94.91-.81 1.33-.95.61-.21.69.63.9 1.08.4.86-.58 2.29.73 2.65.77.21 1.76-.44 2.65-.7 1.1-.31 2.3-.19 3.45-.6a1.62 1.62 0 011.95 1c.38.72-.11 1.16-.69 1.58-.9.65-1.44 1.73-2.5 2.21-.47.22-.46.45-.18.82 1.3 1.67.22 2.74-1 3.73a8.92 8.92 0 01-1.22.76c-2.18 1.26-2.26 1.77-1.94 4.2.21 1.61.84 1.92 2.26 1.68a2.6 2.6 0 012.74 1.42zm-7.05 3.38c-.14-1.66-.14-1.66-1.56-1.11-.22.08-.43.22-.65.3-1.15.41-2.68.7-2.78 2.06s1.18 2.24 2.25 3a8.7 8.7 0 001.32.55c.71.33 1.06.28 1.14-.66a16.09 16.09 0 00.28-4.14zm4.56-17.67c-3.55.43-3.7.55-3.14 2.65a11.26 11.26 0 003.14-2.65zM80.46 68a5 5 0 01-.91.45c-.6.11-1.36.62-1.7-.25a1.28 1.28 0 01.68-1.48c.34-.23.6-.62 1-.78 2.06-.94 2.56-2.83 2.79-4.76a1.38 1.38 0 011.87-1.34 18.69 18.69 0 003.28.66c1.13.14 1.06 1 .79 1.69a2.41 2.41 0 01-1.36 1.41c-2.92 1.1-3.07 3.8-3.7 6.24-.33 1.27-.7 2.53-1 3.81 1.31.68 2.91.42 4.35.9.78.27 1.15-.21 1.5-.69 1.64-2.34 4.09-3.85 6-5.88a3.59 3.59 0 013.37-1.14c1.57.31 1.22 1.41.85 2-.55.88-.93 2-2 2.56-.26-1.1-.33-1.56-1.45-.38-1.36 1.43-2.92 2.69-4.25 4.18-.55.62-.88 1.06 0 1.67.42.3.92.92.67 1.34a1.27 1.27 0 01-1.72.35 1.84 1.84 0 00-2.49 1.09 26.51 26.51 0 00-1.9 3.62c-.48 1.46-.53 2.94.59 4 .81.72 2.12.2 3.15 0 2.06-.43 4.09-1 6.34-1.64a9.69 9.69 0 01-6.37 4.57c-1.69.34-4 .78-5.43-1a6.78 6.78 0 01-1-6.57c.57-2 1.8-3.59 2.81-5.52-1.72-.14-3.15-.66-4.68-.62s-2-.91-1.57-2.5c.61-1.94 1.74-3.75 1.49-5.99zm149.25 5.18c-5.84 2.33-10.1.13-12.65-4.64s-2.62-9.84-1.42-15.12a22.19 22.19 0 016.25-11A104.68 104.68 0 01211.47 45c-1.52.37-3.19 1-4.83.13-.43-.23-1-.36-.87-.93a1.37 1.37 0 011.2-1c5.1-.35 9.84-2.3 14.76-3.41 2.12-.48 4.22-1 6.35-1.42a1.32 1.32 0 011.58.8c.37.79.05 1.23-.55 1.63a29.1 29.1 0 00-6 4.72 18.85 18.85 0 00-4.78 9.08 21.15 21.15 0 00.66 11A10.09 10.09 0 00229 72.79c.26 0 .54-.09.71.39z"/><path class="cls-1" d="M156.59 66.2c1.21-1.07-.08-2.54 1-3.73 0 1.73 1 2.85 1.43 4.22.35 1.17.67 2.6-.33 3.28-1.18.79-2.12-.06-3-1.22-2.57-3.28-5.43-6.34-8.11-9.54-1.16-1.4-2-3-3.57-4.2a39 39 0 00-1.83 5.44c-1.52 4.3-2.94 8.65-4.4 13-.43 1.29-.87 2.57-1.31 3.86-.23.66-.6 1.29-1.39 1.18s-.87-1-.8-1.59a22.7 22.7 0 011.81-6.2c1.87-4.44 3-9.12 4.75-13.59.39-1 .79-2 1.21-3a2 2 0 00-.41-2.25c-2.8-3.12-4.87-6.77-7.34-10.13-.43-.58-1.31-1.74-.36-2.34.71-.45 1.56.42 2.12 1.19 2.19 3 4.08 6.37 6.76 8.86 1.62 1.5 2.7 3.33 4.13 4.9 2.53 2.76 5 5.59 7.36 8.54a13.63 13.63 0 012.28 3.32zM22 48.34c2.58-1.5 5.13-3 7.74-4.46.65-.36.62-.89.82-1.43a52.23 52.23 0 017.45-14.39c.48-.61.82-1.22 1.83-.44s.64 1.2.23 1.95a154.31 154.31 0 01-8.17 13.19c3.74-1.89 7.29-3 10.71-4.38 2.82-1.17 5.79-2.38 9-2.53 2.44-.12 3.88 1.4 3 3.6-1.76 4.18-3.71 8.32-6.91 11.69a2.94 2.94 0 01-.92.4c.6-4.78 3.28-8.69 5.16-13.06-5.18.69-9.75 2.91-14.42 4.73a56.4 56.4 0 00-13.9 7.33 25.57 25.57 0 00-4.41 4.22c-.45.55-.76 1.85-1.54 1.28s-.5-1.7.09-2.68c1.19-2 3-3.37 4.42-5.08zM322.14 41c-3.83 2.71-7.36 5.52-9.82 9.43-.55.88-1.12 1.43-2.14.83-1.21-.72-.16-1.48.15-2a28 28 0 0110.28-10.17c1.46-.85 1.94-2.83 1.11-5.32-.23-.7-.34-1.37.3-1.48a1.36 1.36 0 011.7.84 6.35 6.35 0 01.54 3.62 44 44 0 018.36-3c.93-.3 1.8-.65 2.12.71s-.63 1.64-1.51 1.84a36.67 36.67 0 00-7.23 2.6c-.9.42-1.33.92-1.12 1.92.74 3.48.48 7 .79 10.55a31.56 31.56 0 01-.39 8.6c-.19 1-.67 1.69-1.67 1.48s-1-1.06-.9-1.9a71 71 0 000-12.37c-.2-1.99.01-4-.57-6.18zM34.49 21.32c.11.86-.6 1.41-1.2 1.82-3.71 2.54-6.72 5.86-10 8.83-4.43 3.94-8.9 7.85-13.18 11.94-1.82 1.74-3.71 3.39-5.5 5.16a8.16 8.16 0 01-1.28.93.88.88 0 01-1.25-.11c-.39-.39 0-.77.12-1 1.09-2.29 3-3.94 4.76-5.64 4.48-4.29 9.05-8.5 13.65-12.66 3.68-3.33 7.44-6.56 11.21-9.79a2.43 2.43 0 012.18-.31c.45.1.43.41.49.83z"/><path class="cls-1" d="M66.35 60.21c-2 6.26-6.92 8-12.28 8.79a22.42 22.42 0 01-10.67-.81C37.14 66 31.49 62.92 28.73 56.34c-.18-.41-.18-.9-.36-1.31s-.29-.74.15-1 .76-.21 1.13.31a46.57 46.57 0 003.45 4.34 23.14 23.14 0 0016.46 7.66c6.29.36 11.46-1.79 16-5.81a4.39 4.39 0 01.79-.32zM309.55 57a11.78 11.78 0 00-.13 2.64c.22 1.31-.86 1.75-1.53 2.17s-1.47-.32-2.12-.82c-1.58-1.24-1.91-3.21-2.31-4.85a46.1 46.1 0 01-1.54-10.44 57.28 57.28 0 01.66-8.49c.1-.77.66-1.13 1.08-1.62s.5-1 1.27-.64.59 1.07.49 1.55c-.23 1.18-.37 2.35-.5 3.55a40.79 40.79 0 001.92 17.17c.15.46.1 1.27.75 1.34s1-.58 1.24-1.1a5 5 0 01.42-.6zM0 81.17a43.9 43.9 0 012.43-8c1.36-3.68 2.88-7.31 4.44-10.91a54.91 54.91 0 012.84-5.36c.33-.59.87-1.21 1.7-.83 1.07.49.57 1.27.24 2-2.57 5.44-4.46 11.22-6.75 16.84-.9 2.28-1.58 4.63-2.43 6.93-.27.71-.47 1.34-1.26 1.16A1.5 1.5 0 010 81.17zM436.34 1.53c-1 3.14-1.84 5.63-2.58 8.14q-3.87 13.14-7.69 26.33a3.49 3.49 0 00-.22 1.26c.08 1.06.15 2.45-1.2 2.26a2.29 2.29 0 01-1.94-2.91c.78-3.06 1.65-6.09 2.56-9.11 1.82-6 3.85-11.94 5.47-18 .76-2.85 2.77-5.08 3.31-8a1 1 0 011.29-.63c.66.13 1.1.49 1 .66zM14.69 80A43 43 0 0116 71.11 67.17 67.17 0 0118.87 62c.26-.58.32-1.48 1.46-1.08a1.37 1.37 0 01.89 1.87c-.76 3-1.62 5.93-2.44 8.89a25.69 25.69 0 00-1.32 8c0 .2.1.46 0 .59-.46.65.26 2.11-1.1 2A1.82 1.82 0 0114.69 80zM125 51.73a23.72 23.72 0 01-9.94-6.18 22 22 0 00-1.89-1.72c-.46-.42-1-.83-.5-1.51s1-.47 1.64-.28c1.38.42 2.09 1.68 3.08 2.54 1.69 1.48 3.6 2.65 5.33 4.06a10.33 10.33 0 012.28 3.09zM22.1 48.28c-3.48 1.34-5.82-.71-8.22-2.7a1.41 1.41 0 01-.37-1.58c.14-.69 1-.59 1.31-.42A189.4 189.4 0 0122 48c.06 0 0 .25 0 .39zm37.58 1.64c0-.58-.06-1-.09-1.5-.06-1 .79-1.25 1.39-1.43s.86.51 1 1.13c.33 1.38.72 2.75 1.16 4.1.16.49.61 1-.11 1.27s-1.22.94-1.9 0c-.85-1.07-1.63-2.19-1.45-3.57zM28.52 41.7c-2.68 1.22-4.8 1-6.32-1.41-.5-.79-1.33-1.75-.21-2.58 1-.72 1.82 0 2.33.77a9.68 9.68 0 004.2 3.22zm39.99 2.22a1.48 1.48 0 011.29-1.87c.9-.08 1.06.72 1.27 1.54s0 2 .66 3a1.72 1.72 0 01-.52 2.41c-1 .52-1.23-.69-1.65-1.28a8.65 8.65 0 01-1.05-3.8zM422 52.13a6.26 6.26 0 01-.81 3.6 1.67 1.67 0 01-2.28.73c-1-.32-.89-1.23-.83-1.89a11.94 11.94 0 01.78-2.91c.39-1 1.11-1.84 2.33-1.61s.45 1.44.81 2.08zM450.57.72c-1 3.14-1.83 5.62-2.58 8.14Q444.12 22 440.3 35.15a3.49 3.49 0 00-.22 1.26c.08 1.06.16 2.44-1.2 2.26a2.31 2.31 0 01-1.94-2.92c.78-3 1.65-6.08 2.57-9.1 1.81-6 3.85-11.94 5.46-18 .76-2.85 2.78-5.09 3.32-8a1 1 0 011.28-.65c.68.18 1.1.55 1 .72zm-14.39 50.6a6.21 6.21 0 01-.81 3.59 1.67 1.67 0 01-2.28.74c-1-.32-.89-1.23-.82-1.89a11.1 11.1 0 01.78-2.91c.39-1 1.1-1.84 2.33-1.61s.49 1.44.8 2.08z"/></g></g></svg>