<svg xmlns="http://www.w3.org/2000/svg" viewBox="0 0 42.94 42.94"><defs><linearGradient id="名称未設定グラデーション_15" x1="9.37" y1="38.07" x2="33.69" y2="4.7" gradientUnits="userSpaceOnUse"><stop offset="0" stop-color="#fdda76"/><stop offset=".31" stop-color="#e61803"/><stop offset=".63" stop-color="#b91564"/><stop offset="1" stop-color="#5c4cd0"/></linearGradient><style>.cls-2{fill:#fff}</style></defs><g id="レイヤー_2" data-name="レイヤー 2"><g id="レイヤー_1-2" data-name="レイヤー 1"><circle cx="21.47" cy="21.47" r="21.47" fill="url(#名称未設定グラデーション_15)"/><path class="cls-2" d="M34.87 17.89c0-.62 0-1.24-.08-1.85a8.82 8.82 0 00-.51-2.54 6.42 6.42 0 00-3.68-3.85 8.86 8.86 0 00-3-.64c-.91 0-1.83-.08-2.75-.08h-2.73c-1.9 0-3.8 0-5.7.1a8.84 8.84 0 00-2.54.52 6.42 6.42 0 00-3.6 3.17 8.25 8.25 0 00-.83 3.2c-.07.78-.1 1.56-.1 2.34v8.1a15.15 15.15 0 00.2 2.23A7.11 7.11 0 0011 31.76a6.54 6.54 0 003 2.13 9.47 9.47 0 002.69.5c.68 0 1.37.07 2.06.07h7.29c.6 0 1.19 0 1.78-.07a9.63 9.63 0 002.6-.54 6.45 6.45 0 003.26-2.67 8 8 0 001.12-3.7q.08-1.08.09-2.16c0-2.48.02-4.96-.02-7.43zM32.5 27a7 7 0 01-.41 2.18 4.17 4.17 0 01-2.48 2.48 6.26 6.26 0 01-1.66.38c-.8.07-1.61.08-2.42.1H19.3c-.84 0-1.69 0-2.53-.08a7.25 7.25 0 01-2-.35A4.55 4.55 0 0113 30.63a4.62 4.62 0 01-1.13-2.26 8.72 8.72 0 01-.18-1.61c-.13-2.7-.06-5.41-.07-8.11 0-.76 0-1.52.08-2.28a6.5 6.5 0 01.5-2.38 4.12 4.12 0 012.34-2.24 6.62 6.62 0 012-.42c.7-.05 1.39-.06 2.08-.08h6.63c.72 0 1.43 0 2.15.07a6.41 6.41 0 012.58.6 4.09 4.09 0 012.05 2.24 7 7 0 01.42 2c0 .71.06 1.41.08 2.12v6.53c.05.74.01 1.47-.03 2.19z"/><path class="cls-2" d="M22.16 15.14a6.56 6.56 0 106.52 6.63 6.56 6.56 0 00-6.52-6.63zM22.11 26a4.26 4.26 0 114.26-4.25A4.25 4.25 0 0122.11 26zm6.81-12.63a1.54 1.54 0 101.53 1.53 1.51 1.51 0 00-1.53-1.53z"/></g></g></svg>