<svg xmlns="http://www.w3.org/2000/svg" viewBox="0 0 215.02 81.53"><defs><style>.cls-1{fill:#211815}</style></defs><g id="レイヤー_2" data-name="レイヤー 2"><g id="レイヤー_1-2" data-name="レイヤー 1"><path class="cls-1" d="M.53 72.21a.91.91 0 00.31 0c11.08-2 13-8.34 13.44-14.29h4.46c0 3.71-.1 8.34-.15 10.85v1.37c0 .93.75 1.51 2 1.51 1.4 0 2.5-.71 2.5-1.61V70c-.08-.76-.24-7.47-.25-12.07h8.46c.74 0 .85-.36.85-.57 0-1-2.78-3.51-3.72-3.84a.56.56 0 00-.27 0c-.51 0-.85.46-2.58 3a.76.76 0 01-.53.24h-2.27c0-3.31.12-3.35.47-3.48s1.11-.48 1.11-.95c0-1-5.54-1.76-5.78-1.76s-.43.19-.43.36a.3.3 0 000 .18 20.85 20.85 0 01.55 5.65h-4.37v-.3c0-.78.05-1.45.05-2.66 0-.19 0-.22.44-.46s.89-.55.89-.94c0-1-5.1-1.4-5.63-1.44l1.54-.26c3.84-.66 8.19-1.4 11.71-2.32.1.15.19.31.27.46l.12.21c.88 1.47 1.95 2.28 3 2.28A2.41 2.41 0 0029 48.74c0-3.25-4.36-4.58-9.07-5.53a3.16 3.16 0 00-.66-.11c-.15 0-.29.08-.29.22s.13.28.44.56l.13.12a18.24 18.24 0 012.68 2.79c-3.78.29-6.91.47-9.55.57 1.25-1.28 2.53-2.74 3.27-3.66.31-.37.45-.47.87-.47 1.18 0 1.3-.5 1.3-.71 0-1.25-5.41-3-6.37-3a.26.26 0 00-.29.29v.12a1.25 1.25 0 010 .19 1.76 1.76 0 010 .42 36.74 36.74 0 01-1.26 6.84H8.25a27.74 27.74 0 01-4.54-.31 1.13 1.13 0 00-.32 0 .22.22 0 00-.25.25c0 .27 1.7 4.59 2.66 4.59a.79.79 0 00.51-.24.78.78 0 01.31-.18c.92-.18 2-.36 3.06-.56a.31.31 0 00-.13.27.92.92 0 000 .25v.1a30 30 0 01.45 5.09c-4.06-.1-7.17-.27-9-.48H.83v.17c0 .47 1 1.86 1.73 1.86 2-.21 5.12-.28 7.38-.31-.03 6.85-3.2 11.39-9.21 13.52-.5.19-.73.31-.73.52s.28.29.53.29zM39.36 45l.13.11a15.47 15.47 0 013.31 4.94l.12.26a2.74 2.74 0 002.37 1.76 2.45 2.45 0 002.35-2.53c0-3.93-6.72-5.32-8.43-5.32-.18 0-.4 0-.4.22s.12.26.55.56z"/><path class="cls-1" d="M40.05 69.63c3.45-.17 10.21-.38 12.27-.38h6.91a2.46 2.46 0 000 .26v.4c0 1.06.83 1.75 2.11 1.75s2.6-.69 2.6-2v-.16c-.17-2-.39-8.11-.39-11 0-1.76.09-1.87.48-2 .74-.37 1.2-.69 1.2-1.12 0-1-3.75-2.91-4.31-2.91-.29 0-.66.4-1.6 1.73 0 0-.18.34-.46.34h-5.48c0-9.3.06-11.67.49-11.81.82-.3 1.29-.72 1.29-1.16 0-1.31-6.17-1.86-6.23-1.86a.27.27 0 00-.29.32 1 1 0 000 .29c.44 2 .52 5.82.52 14.18-5.66-.11-9.23-.28-10.63-.49h-.18v.17c0 .62 1.22 2 1.76 2h.05c1.15-.07 10.4-.24 12.37-.24h6.18c.45 0 .56 0 .59.45v4.56h-4c-3.57 0-10.26-.08-15.06-.62h-.16v.17c0 .57 1.23 2.1 1.84 2.1 3.23-.24 11.38-.38 13.38-.38h4c0 2.39 0 4.76-.06 5.82h-7a133.61 133.61 0 01-14.11-.53H38v.16c0 .58 1.52 1.96 2.05 1.96z"/><path class="cls-1" d="M53.81 52.59a.24.24 0 00.26.22c.81 0 5.32-3 8.52-5.42.31-.28.45-.39.78-.39a1 1 0 01.32 0 4 4 0 00.55 0c.92 0 1.06-.4 1.06-.64 0-1-4.49-4.06-5.25-4.06-.19 0-.24.16-.29.32a.8.8 0 01-.07.2v.1a16.67 16.67 0 01-.76 2 43.57 43.57 0 01-4.69 7c-.3.3-.43.51-.43.67zm21.03 11.04c.9 1.64 1.83 3.34 3.6 3.34 4 0 9.24-8.62 9.24-15.12a7.78 7.78 0 00-1.47-5 5.48 5.48 0 01.55 0h.49a9.22 9.22 0 019.19 9.43 12.33 12.33 0 01-2.66 7.36C92 66 87.86 68.31 85.15 69c-1.65.45-1.79.55-1.79.74s.41.25.6.25c1.94 0 8.36-.8 12.24-4.34a12.66 12.66 0 004.31-9.34 11 11 0 00-3.34-8 13.34 13.34 0 00-9.53-3.48 14.22 14.22 0 00-14.52 13.88 6.23 6.23 0 00.88 3.51c.3.43.56.9.84 1.41zm9-16.42a1.24 1.24 0 00.4-.1h.07a.47.47 0 01.17 0c.5 0 .8 1.28.8 2.51 0 4.87-4.2 12.72-6.81 12.72-.85 0-2.79-2-2.79-5.24.04-3.72 2.57-8.19 8.2-9.89zm31.81-1.01h29.28v22.77h-30.37v10.87h41.25V35.32h-40.16V46.2zm53.87-11.96l-8.88 21.55h11.77l4.39-10.67h19.32l-5.28 9.32-12.87.02-4.48 10.24 11.28-.12-9.82 16.95h12.58l27.5-47.29h-45.51zM27.25 5.1a2.6 2.6 0 010 .4 1.82 1.82 0 01-1.71 1.92 1 1 0 01-1-.91 1.35 1.35 0 01.73-1.08c.64-.43 1.09-.72 1.24-1.43.07-.31.12-.46.19-.46s.4.72.48 1.14h6.6a.22.22 0 010-.08 16.27 16.27 0 00.49-2.42v-.1c-1.55.14-3.13.17-4.52.17a22.06 22.06 0 01-4-.2s.2-.08.6-.12c1.53-.11 6.43-.72 8.19-1.48a9.66 9.66 0 00.87-.45h.06c.12 0 1.69 1.26 1.69 1.72 0 .15-.16.2-.38.2a2.48 2.48 0 01-.45 0h-.25c-.51.07-1 .12-1.55.17 1.16.35 2 .72 2 .94s-.14.15-.42.22a.49.49 0 00-.22.1 12.62 12.62 0 01-1.79 1.36h2.34a.23.23 0 00.2-.08s.68-.79.83-.79c.32 0 2 1 2 1.75 0 .3-.32.49-1 .55a7.44 7.44 0 00-2.19.64c.59.14 2.11.56 2.11 1.68a1 1 0 01-1 1 1.26 1.26 0 01-1.06-.77 11 11 0 00-1.31-1.85c-.14-.14-.19-.2-.19-.22s0 0 .05 0a4.73 4.73 0 01.93.07 8 8 0 00.75-1.51s0-.05-.11-.05zm6.37 5.39c.16 0 .17 0 .22-.08s.47-.47.64-.47 1.58.84 1.58 1.17c0 .16-.18.22-.4.31a.8.8 0 00-.42.23 8.08 8.08 0 01-1.38 1.43 19.35 19.35 0 005.82.69 8.24 8.24 0 00-2.3 1.48.64.64 0 01-.56.3 10.87 10.87 0 01-4.25-1.63A14.76 14.76 0 0126 15.65c-.2 0-.3 0-.3-.05s.27-.13.79-.23a11.35 11.35 0 005.1-2.37 5.11 5.11 0 01-.91-1.55 11.69 11.69 0 01-6.07 3.58 2.33 2.33 0 01.55-.35C28.14 13 29.92 10 30 9.25a1.3 1.3 0 01-1.16-1.4V6.47a6.21 6.21 0 000-.69.42.42 0 000-.11h.24c.24 0 1.92.18 1.92.47 0 .08-.07.17-.29.28s-.15.17-.15.34V7c0 1 0 1 1.31 1a6.92 6.92 0 001.46-.1c.74-.24.71-.86.9-1.75 0-.1 0-.15.06-.15s.19 1 .59 1.31a1 1 0 01.44.77c0 .86-1.11 1.25-3.53 1.25h-.59c.25.13.91.5.91.74s-.17.16-.5.2c-.09 0-.16.08-.22.18zm-8-1.63c0-.38.31-.81 1.11-1.09a2.2 2.2 0 001.35-1.11c.13-.25.2-.37.23-.37a2.88 2.88 0 01.17 1.19 2 2 0 01-1.78 2.27 1 1 0 01-1.1-.89zm3.75-4.34a.88.88 0 01-.87-.69 2.58 2.58 0 00-.56-.92c-.08-.07-.15-.14-.15-.19s.72-.15 1-.15c1.53 0 1.6.83 1.6 1.05a1 1 0 01-1.04.9zm2.76 0a1 1 0 01-1-.87 1.62 1.62 0 00-.33-.82c-.07-.09-.11-.14-.11-.17s.32-.17.79-.17c.78 0 1.67.2 1.67 1.09a1 1 0 01-1.04.94zM31.82 7A4 4 0 0031 5.82c-.12-.1-.2-.14-.2-.17a4.36 4.36 0 011.16-.13c1.32 0 1.63.7 1.63 1.09a.89.89 0 01-.88.87 1.08 1.08 0 01-.89-.48zm-.72 4l-.22.27a6.74 6.74 0 001.42 1.16c.08-.09 1.17-1.16 1.17-1.37 0 0 0-.06-.18-.06zm24.25-4.56c0 .67-.62 1.4-1.89 1.8a29.74 29.74 0 00-3.75 1.43 7.19 7.19 0 01.16 1.43c0 1.39-.73 1.81-1.17 1.81s-.77-.33-.77-1.09v-.23c0-.39.3-.74.32-1.08-1 .72-1.41 1.4-1.41 1.93 0 .81.89 1.3 1.91 1.3a3.75 3.75 0 001.75-.46 1.52 1.52 0 01.71-.18.93.93 0 011 .89c0 1-1.65 1.5-2.93 1.5-2.1 0-3.56-1.2-3.56-2.58 0-.94.67-2.06 2.57-3.21a4.18 4.18 0 000-.5c0-1.45-.47-1.92-.89-1.92s-.59.17-1 .62c-1.36 2.61-1.6 2.91-2.18 2.91-.11 0-.73 0-.73-.82a2.05 2.05 0 01.84-1.58A8.31 8.31 0 0047 5a4.48 4.48 0 01-.64 0 2.08 2.08 0 01-2.19-2c0-.1 0-.13.09-.13a1.27 1.27 0 01.48.25 2.26 2.26 0 001.26.43 4.45 4.45 0 00.86-.09 4.15 4.15 0 00.61-.15v-.2c0-.71-.42-.86-.56-.89-.3-.07-.52-.08-.52-.2a1.33 1.33 0 011.18-.69 1.08 1.08 0 011.11 1.19 1.46 1.46 0 00.5-.15 1.61 1.61 0 01.59-.13.55.55 0 01.61.59c0 1-2.07 1.76-2.39 1.86-.47 1-.74 1.6-1 2.17a1.86 1.86 0 01.78-.17c.85 0 1.53.68 1.75 1.77 1.09-2.94 2.67-3.58 3.74-3.58.74 0 2.09.48 2.09 1.56zm-1.77-.2a.61.61 0 00-.25-.47.91.91 0 00-.61-.2c-1.41 0-2.7 2.5-3.06 3.39 3.34-1.75 3.92-2.2 3.92-2.72zm20.13 6.46a9.69 9.69 0 00-1.58 2 .88.88 0 01-.55.37 24.5 24.5 0 01-3.4.24 16.67 16.67 0 01-2.62-.19 4 4 0 01-3.45-2.86A27.18 27.18 0 0160.24 15c-.05.07 0 .42-.22.42a8.55 8.55 0 01-2.19-2s0-.07.12-.08a8.14 8.14 0 002.42-.88c.24-.15.27-.54.27-2.59V8.48a.19.19 0 00-.21-.19h-.18c-.29 0-.86.15-1.16.17-.27 0-.74-.64-.74-.87.59.08 1.58.21 2 .23h.1a.39.39 0 00.27-.15c.5-.62.64-.71.72-.71.25 0 1.81 1 1.81 1.45 0 .08-.05.15-.18.24-.34.21-.42.21-.45.55 0 .54-.09 1.16-.09 1.78v.93c3.24-2.42 3.68-7.25 3.68-7.94v-.34c0-.07 0-.08.05-.08a9.71 9.71 0 011.23.33V2.35c0-.07 0-.3-.4-.3h-.64a11.39 11.39 0 00-1.82.17c-.27 0-.79-.62-.79-.84a14 14 0 002.62.25H67a.36.36 0 00.29-.15s.4-.52.6-.52a2.27 2.27 0 011.23 1c0 .2-.25.33-.52.4-.61.19-.74.34-.74.57V3c.35 3.2 1.53 5.84 5.5 8 .12.07.17.1.17.15s-1.3.17-2.44.91a.6.6 0 01-.29.08.81.81 0 01-.54-.21 10.4 10.4 0 01-2.54-5.72 8.79 8.79 0 01-5.17 5.87.19.19 0 000 .08c.32.74 1.11 1.33 4.53 1.33a24.49 24.49 0 006.52-.86zM63.05 3.23a1.05 1.05 0 01-1 1.06 1.39 1.39 0 01-1.13-.76 10.94 10.94 0 00-1.5-1.87c-.15-.15-.21-.21-.21-.25s0 0 .11 0c1.34-.01 3.73.36 3.73 1.82zM81 14.66h-.13a3.89 3.89 0 01.87-.32c.72-.22 5.15-1.72 5.15-5.38a3.17 3.17 0 00-2.36-3.26A14.16 14.16 0 0183.09 9c.5.22.86.51.86.94a.85.85 0 01-1 .81 2.65 2.65 0 01-.92-.25c-.35.47-1.8 2.35-3.21 2.35-1.08 0-1.6-1.14-1.6-2.17A5.89 5.89 0 0179 6.94a9.29 9.29 0 01-.42-1 11.19 11.19 0 00-.69-1.87 2 2 0 01-.32-.81c0-.15.08-.22.23-.22a2.42 2.42 0 012 1.67 12.44 12.44 0 00.39 1.23 7.33 7.33 0 013.08-1.25v-.27c0-.82-.22-1.43-.71-1.53-.22-.05-.29-.12-.29-.2S82.8 2 83.43 2c1.39 0 1.39 1.75 1.39 1.9a5.5 5.5 0 01-.07.78 4.35 4.35 0 014 4.24 5 5 0 01-1.51 3.39C85.36 14.23 82 14.66 81 14.66zM79.34 7.6a4 4 0 00-.77 2.3c0 .1 0 1.32.7 1.32.07 0 .79-.07 1.87-1.28a7.16 7.16 0 01-1.8-2.34zm1.07-1.08a4.54 4.54 0 001.65 2.11 10 10 0 001.1-3.06 5.4 5.4 0 00-2.75.95zm25.24-2.85c0 .47-.45.94-1.34.94a2.87 2.87 0 01-.39 0c-.3 0-.59-.05-.87-.05a5.86 5.86 0 00-2.58.51c-.79.47-1.53 2.49-1.53 4.35 0 2.21 1.06 3.45 2.41 3.45a2.41 2.41 0 00.79-.13 1.9 1.9 0 01.59-.11 1.11 1.11 0 011.21 1c0 .47-.46 1.35-2.39 1.35s-3.75-1.22-3.75-4.44a9.49 9.49 0 011.51-5 .31.31 0 00.07-.12 17.82 17.82 0 00-3 1.41 2.37 2.37 0 01-1.07.17c-.75 0-2-.29-2-1.27 0-.2 0-.25.16-.25a2.64 2.64 0 01.35.07 4.71 4.71 0 00.62.07 3.61 3.61 0 001.36-.31c2.26-.89 3.89-1.76 6.09-2.45a4.1 4.1 0 011.38-.4c2.37 0 2.38 1.07 2.38 1.21zm7.08-2.14h7.35c.17 0 .25-.18.27-.22a5.73 5.73 0 01.5-.62c.07-.07.1-.12.22-.12a3.83 3.83 0 011.87 1.28c0 .13-.17.29-.52.44-.1 0-.19.17-.19.69s.14 1.34.15 1.63v.06a1 1 0 01-1.09 1 .85.85 0 01-.94-.86v-.14h-8c0 4.23-.69 8.08-4.12 10.25a1 1 0 01-.34.15s0-.13.22-.3c1.81-1.88 2.49-6 2.49-9.33a27.56 27.56 0 00-.46-4.68.8.8 0 010-.16V.54a6.67 6.67 0 012.47 1zm-.13.62a.53.53 0 00-.24.36v1.76h8V2.69c0-.58 0-.76-.39-.76h-7.14zm2.3 5.77h1.73V6.73a9.58 9.58 0 00-.17-1.4v-.08c0-.07 0-.1.1-.1.22 0 2.52.35 2.52.75 0 .15-.25.27-.42.37a.6.6 0 00-.2.22v1.43h1.85a.23.23 0 00.21-.12c.08-.13.55-.74.7-.74s1.78.86 1.78 1.21c0 .1-.07.21-.29.37-.37.27-.38.22-.4.54v.19c0 .85.08 3.75.17 5.19 0 .49-.57.74-1.06.74s-.86-.2-.86-.65v-.52h-5.89v.48c0 .47-.52.76-1 .76s-.86-.22-.86-.71v-.07c.12-1.39.15-3.6.15-4.94a10 10 0 00-.2-2.59v-.08a.06.06 0 01.04.02 8.54 8.54 0 012 .89zm-.17.49c-.07 0-.07.15-.07.22v2h2V8.34h-1.8a.35.35 0 01-.13.07zm-.07 5.34h2v-2.7h-2c-.01.95-.01 1.95 0 2.7zm5.91-3.09v-2c0-.29-.09-.29-.27-.29h-1.89v2.32zm0 3.09v-2.7h-2.17v2.7zm9.93-2.37v.14a3.45 3.45 0 00.2 1.16 1.26 1.26 0 01.12.54.74.74 0 01-.75.79c-1.11 0-1.87-1.8-1.87-4a27.76 27.76 0 01.55-4.32 9.58 9.58 0 00.19-1.3 1.48 1.48 0 00-1-1.26c-.28-.1-.57-.22-.57-.39s.51-.45 1-.45a2.57 2.57 0 012.15 2.15 3.11 3.11 0 01-.32 1.2 8.25 8.25 0 00-.92 3.36s0 .89.13.89.07-.05.13-.17A26.47 26.47 0 01131.63 6v.06a3.44 3.44 0 01-.28 1 13.4 13.4 0 00-.85 4.32zm6.59-5c0 .64.11 1.24.17 1.9a4.47 4.47 0 010 .72 7 7 0 01-4.83 6.56 3.2 3.2 0 01-.69.17h-.07s.32-.28.56-.45a8 8 0 003.43-6.53V6.68h-.42c-2.69 0-2.76-1.88-2.76-2s0-.12.08-.12a.7.7 0 01.32.15 3.51 3.51 0 001.9.52h.82v-.69c0-1.35 0-1.53-.82-1.63-.14 0-.36 0-.36-.14a1.27 1.27 0 011.18-.9 1.77 1.77 0 011.68 1.51v.17a4.82 4.82 0 00.83.1c.45 0 1.29 0 1.29.77s-.98 1.58-2.31 1.97zm.19-2.66l-.15 1.06c.62-.23.7-.49.7-.6s-.13-.33-.55-.45zm16.56 10.52a.89.89 0 01-.84.94 1.24 1.24 0 01-1-.74 3.27 3.27 0 00-.81-.94 3.32 3.32 0 01-2.94 2 2.44 2.44 0 01-2.52-2.07c0-1.3 1.73-2 3.26-2 .27 0 .57 0 .88.07a8.06 8.06 0 000-.84V9.47h-.2a10.3 10.3 0 01-1.45.1c-3 0-3.16-1.78-3.16-1.92v-.08s.24.12.32.15a7.52 7.52 0 002.52.41 9.29 9.29 0 001.9-.19V6.09h-.09c-1.31 0-2.89-.4-2.89-2.24 0-.15 0-.18.09-.18s.2.1.33.17a4.26 4.26 0 002.09.74 3.55 3.55 0 00.57-.05v-.36c.05-.6.08-1 .08-1.37 0-.64-.17-.86-.81-1-.23-.05-.35-.09-.35-.19s.52-.92 1.16-.92 1.65.87 1.65 1.56a14.55 14.55 0 01-.54 1.87l.12-.07a1.35 1.35 0 01.65-.22c.86 0 .89.56.89.67 0 1.11-1.76 1.47-2 1.52a13.41 13.41 0 00-.08 1.39v.29c.9-.32 1.11-.5 1.11-.7s0-.36-.59-.74a1.23 1.23 0 01-.26-.22 1.7 1.7 0 01.32.12 5.31 5.31 0 001.56.25c.69 0 1 .3 1 .71 0 .9-1.4 1.64-3.08 2.13.09.76.2 1.45.41 2.57 1.66.51 2.7 1.48 2.7 2.42zm-5.45-1.8c-.1 0-2.15 0-2.15 1 0 .53.76.82 1.4.82a2.08 2.08 0 002.22-1.53 4.13 4.13 0 00-1.47-.29zM173.9 5.3a.68.68 0 01-.76.69 1.84 1.84 0 01-.7-.16 8.61 8.61 0 00-3.15-.5h-1.14v2.44a2.83 2.83 0 01.79 2.13c0 3.86-4.44 5.62-5.58 5.62h-.11s.31-.27.9-.57a6.5 6.5 0 002.69-3.18l-.17.05a1.38 1.38 0 01-.34 0c-1.23 0-1.63-2.35-1.63-2.64a1.91 1.91 0 011.8-2.09 2.33 2.33 0 01.56.09c0-.49 0-1.08-.06-1.7a16.9 16.9 0 00-3.88 1 3.94 3.94 0 01-1.5.34c-.9 0-1.93-.54-1.93-1.53 0-.47.1-.77.2-.77s.22.13.46.37a2 2 0 001.16.23c.42 0 .84 0 1-.06 1-.17 2.82-.43 4.47-.61V2.9c0-.55-.21-.67-.63-.94-.22-.15-.36-.23-.36-.34s.61-.6 1.2-.6c.15 0 1.39.13 1.39 1.29a6.14 6.14 0 01-.12.88c-.06.39-.13.76-.18 1.11.49 0 .94-.09 1.29-.1s.41 0 .41-.07-.94-.64-1-.66c-.23-.11-.32-.21-.32-.26s0-.07.14-.07a.71.71 0 01.32.07 14.45 14.45 0 002.6.7 5.3 5.3 0 011.45.3 1.24 1.24 0 01.73 1.09zm-8 2.79c-.31 0-.54.22-.54.7 0 .74.45 1.47.94 1.47.3 0 .62-.26.62-.91a2.69 2.69 0 000-.44c-.1-.1-.45-.82-1.02-.82z"/></g></g></svg>