<svg xmlns="http://www.w3.org/2000/svg" viewBox="0 0 202.48 67.63"><g data-name="レイヤー 2"><g data-name="レイヤー 1"><path d="M3.64 21.44h7.56a31.08 31.08 0 00-2.54 2.22A12 12 0 007 25.8a3.93 3.93 0 00-.72 2.2 2.36 2.36 0 00.4 1.38 2.87 2.87 0 001.74.9 21.5 21.5 0 004.18.36c2.16 0 4-.07 5.52-.2s3.35-.35 5.48-.64v6.52a99 99 0 01-11.88.84q-6 0-8.88-2.16A7.22 7.22 0 010 28.8a8.7 8.7 0 011-4 15.54 15.54 0 012.64-3.36zm12.48-6.12H8.6l3.4-3.2H.72V6H22.4v4.64zm1.4 5.84v-6.32h3v6.32zm4.76 0v-6.32h3v6.32zM45.76 19q2 1.44 6.64 5.32l-3.28 5q-1.6-2-3.36-4V38h-5.68V25.32a34.51 34.51 0 01-5.24 8 35.56 35.56 0 00-2.92-5.76 27.33 27.33 0 003.8-4.66 43.49 43.49 0 003.2-5.7h-6.08v-5.4h7.24V7.92q-2.56.48-6.12 1a12.52 12.52 0 00-.66-2.26 18.11 18.11 0 00-1-2.26q4.47-.72 8.7-1.84A44.9 44.9 0 0048.16.12l4.08 4.44a58.77 58.77 0 01-6.48 2.08v5.16h6.36v5.36h-6.36zM59.28 5v22.6h-5.64V4.92zm9.4 26.16a10.13 10.13 0 01-.54 3.74 4 4 0 01-1.9 2 10.5 10.5 0 01-3.36.88 44.64 44.64 0 01-5.08.22 16.39 16.39 0 00-.76-3 21.51 21.51 0 00-1.24-3q2.52.12 6 .12a1.23 1.23 0 00.84-.22 1 1 0 00.24-.78V.76h5.76zm43.76.32a8.89 8.89 0 01-.52 3.42 3.66 3.66 0 01-1.84 1.86 8.94 8.94 0 01-3.08.84 40.61 40.61 0 01-4.8.16 16.87 16.87 0 00-.7-2.76 19.25 19.25 0 00-1.14-2.8c.88.08 2.23.12 4 .12h1.24a1.2 1.2 0 00.78-.2.93.93 0 00.22-.72v-4.8h-7.08v10.84h-5.88V26.6h-7.2q-1.32 7.63-5.08 11.64a16.78 16.78 0 00-2.16-2 20.61 20.61 0 00-2.44-1.76 15.37 15.37 0 003.8-7.56 51.24 51.24 0 00.88-10V2.6h31zm-18.8-10.36v-4H87.2q0 1.85-.12 4zm0-13H87.2v3.64h6.44zm13 3.64V8.12h-7.12v3.64zm-7.12 9.36h7.12v-4h-7.12zm48.84 8.32a38.12 38.12 0 005.66 2 50.29 50.29 0 006.42 1.28 19.64 19.64 0 00-2 2.32 19.19 19.19 0 00-1.68 2.6 37.24 37.24 0 01-7-2.3 32.26 32.26 0 01-6.12-3.5V38h-5.84v-6a31.3 31.3 0 01-6 3.36 40.8 40.8 0 01-6.8 2.32 21 21 0 00-1.66-2.48 18.87 18.87 0 00-1.9-2.2 45.88 45.88 0 006.5-1.42 36.15 36.15 0 005.62-2.14h-11v-4.72h15.24v-1.88a97.82 97.82 0 01-11.6 1.36 9.24 9.24 0 00-.74-2.24 17 17 0 00-1.18-2.2 104.21 104.21 0 0011.4-1l-2-.44-.36.44-5.52-1.44c.4-.43 1.12-1.28 2.16-2.56l.6-.72h-7.28V9.52H134l1.64-2.28h-6.84v1.64h-5.36V2.52h14.44V0h5.84v2.52h14.48v6.36h-5.6V7.24h-14.44l3.32 1-1 1.32h17.92V14h-6.6a13.79 13.79 0 01-2.48 3.8 78.74 78.74 0 017.56 2.44l-3.44 4a88.76 88.76 0 00-9.2-3.2 27.85 27.85 0 01-3.88 1.24h3.28v2.44h15.64v4.72zM136.6 14.72q3.19.6 6.8 1.52a7.44 7.44 0 002.12-2.24h-8.36zm65.88 16.96a9 9 0 01-.54 3.48 3.85 3.85 0 01-1.9 1.92 8.68 8.68 0 01-3.06.82c-1.19.12-2.82.18-4.9.18a17.09 17.09 0 00-.72-2.9 17.89 17.89 0 00-1.16-2.82q2.09.12 5.52.12a1.38 1.38 0 00.78-.24.87.87 0 00.22-.68V26.2l-4.24 3.28a55.58 55.58 0 00-6.32-7.32 20.41 20.41 0 01-7.92 8.36 14.19 14.19 0 00-1.46-1.84 24.31 24.31 0 00-2-2v11.4H169V6.56h13.72V0h6v6.56h13.8zm-27.68-6a13.43 13.43 0 006-5.82 19.58 19.58 0 001.86-7.66h-7.86zm13.84-13.48a38.33 38.33 0 01-.48 4.12 107.36 107.36 0 018.56 8.6V12.24z" fill="#211815"/><path d="M69 60.09c1.78 0 2.46.66 2.46 1.82a1.66 1.66 0 01-1.6 1.63v.08c1.17.15 1.84.81 1.84 1.8 0 1.3-.95 2.07-2.56 2.07h-2.58v-7.4zm-1.59 3.16h1.33c1.21 0 1.84-.5 1.84-1.28s-.41-1.18-1.69-1.18h-1.47zm0 3.54H69c1.21 0 1.76-.5 1.76-1.41s-.69-1.43-2-1.43h-1.34zm11.84-5.96h-3.79v2.37h2.87v.73h-2.87v2.83h3.86v.73h-4.73v-7.4h4.66zm8.16 6.66H86.3L84 63c-.41-.8-.67-1.37-1-2.15h-.15v6.63H82v-7.4h1.36l2.12 4.15c.43.83.69 1.47 1 2.22h.16c0-.79-.08-1.56-.08-2.43v-3.93h.81zm8.16-6.66h-2.32v6.66h-.88v-6.66h-2.3v-.74h5.5zm8.33 2.96c0 2.43-1.29 3.84-3.05 3.84s-3.06-1.39-3.06-3.82 1.3-3.81 3.06-3.81 3.05 1.35 3.05 3.79zm-5.18 0c0 2 .87 3.11 2.13 3.11s2.15-1.06 2.15-3.1-.86-3.12-2.12-3.12-2.16 1.07-2.16 3.12zm14.7-.72l3 4.42h-1l-2.53-3.82-1.14 1.19v2.63h-.86v-7.4h.86v3.79l3.37-3.79h1zm11.25.72c0 2.43-1.28 3.84-3 3.84s-3.05-1.39-3.05-3.82 1.24-3.81 3-3.81 3.05 1.35 3.05 3.79zm-5.18 0c0 2 .87 3.11 2.13 3.11s2.13-1.07 2.13-3.11-.87-3.12-2.13-3.12-2.13 1.08-2.13 3.13zm12.91-2.96h-2.32v6.66h-.89v-6.66h-2.3v-.74h5.51zm7.79 6.66h-.91l-.72-2.35h-2.64l-.74 2.35h-.85l2.38-7.4h1.1zm-2.37-4.83c-.19-.62-.34-1.19-.52-1.9h-.15c-.17.71-.32 1.27-.51 1.89l-.55 1.81h2.28z"/></g></g></svg>