<svg xmlns="http://www.w3.org/2000/svg" viewBox="0 0 248.33 74.7"><g data-name="レイヤー 2"><g data-name="レイヤー 1"><path d="M0 39.73v-6.91h19.89V14.43H0V7.52h27.06v32.21zm46-34.8h6.91c-.14.85-.29 1.62-.44 2.31s-.23 1.06-.26 1.12h15.07v6.73a32.57 32.57 0 01-2.53 10.47 24.42 24.42 0 01-5 7.42 34.28 34.28 0 01-6.07 4.88 33.36 33.36 0 01-5.76 2.93 35.17 35.17 0 01-4.36 1.38 11.07 11.07 0 01-1.72.33v-7.12l1.54-.38a27.08 27.08 0 003.81-1.34A26.77 26.77 0 0052 31a20.68 20.68 0 004.62-4.51h-8.13v-6.6h10.78a22.94 22.94 0 00.83-5H49.76a30.48 30.48 0 01-5.28 7.5 42.84 42.84 0 01-4.18 3.63 9.39 9.39 0 01-1.71 1.14V18.7a11.16 11.16 0 001-.81 16.15 16.15 0 002.2-2.53 25.31 25.31 0 002.42-4.29A27.27 27.27 0 0046 4.93zm56.47 17.69a12.29 12.29 0 00-1.54-5.88 5.72 5.72 0 00-4.31-2.84c-.08 2.85-.27 5.72-.55 8.63a35.94 35.94 0 01-1.65 8 17.17 17.17 0 01-3.08 5.8 5.61 5.61 0 01-4.66 2.07 7.54 7.54 0 01-3.94-1.34 9.51 9.51 0 01-3.17-4.16 20.17 20.17 0 01-1.34-7.9 21.38 21.38 0 012-8.87 17.3 17.3 0 015.06-6.42 13.67 13.67 0 017.17-2.84 16.72 16.72 0 017.94 1.25 13.13 13.13 0 016 5.3 19.52 19.52 0 012.54 9.58 22.52 22.52 0 01-1.29 8.54 14.39 14.39 0 01-3.65 5.57A13.78 13.78 0 0199.22 40a15.12 15.12 0 01-4.75.88v-6.6a7.27 7.27 0 005.89-3.06q2.16-2.92 2.11-8.6zm-15.66 8.84c.68 0 1.24-.54 1.69-1.72a21.33 21.33 0 001.11-4.51c.27-1.83.48-3.74.61-5.74s.18-3.81.16-5.45a6.45 6.45 0 00-3.24 2.5 14.52 14.52 0 00-2 4.16 18.49 18.49 0 00-.75 4.3 11 11 0 00.61 4.85c.43 1.02 1.05 1.55 1.81 1.61zM129.54 16h-8V9.81h8v-4.4h6.11v4.4h4.62q-.79-1.67-2.29-4.22h6.82q3.18 6.51 4.45 9.92c.85 2.27 1.27 3.42 1.27 3.45h-6.47a148 148 0 00-1.27-3.63 34.32 34.32 0 00-1.89-4V16h-5.24v3.4c.38-.08.7-.14 1-.17a20.38 20.38 0 014.22.37 12.91 12.91 0 014.23 1.59 8.8 8.8 0 013.23 3.41 12.18 12.18 0 011.3 5.85 12.48 12.48 0 01-1.28 5.85 9.16 9.16 0 01-3.14 3.45 12.11 12.11 0 01-4 1.65 18 18 0 01-3.79.44v-6.73a11 11 0 003.5-.46 3.06 3.06 0 001.85-1.5 6.29 6.29 0 00.5-2.7 4.27 4.27 0 00-1.76-3.7 8.5 8.5 0 00-5.32-1.14h-.26a.84.84 0 00-.27 0v7.44a9.4 9.4 0 01-1.43 5.32 5.85 5.85 0 01-2.77 2.2 7.62 7.62 0 01-6.4-.7 9.23 9.23 0 01-3.13-3.17 10.24 10.24 0 01-1.41-5 10.1 10.1 0 011.08-4.95 12.68 12.68 0 013.21-4 15.17 15.17 0 014.74-2.62zm0 17.68v-6.75a6.09 6.09 0 00-2.34 2 5.11 5.11 0 00-.83 2.77 2.46 2.46 0 00.42 1.63 2.86 2.86 0 001 .9 2.09 2.09 0 001.08.24h.31c.18 0 .32-.35.36-.77zm61.68-13.13H201v6h-9.82v15.6h-6.64V26.58h-8.14a20.88 20.88 0 01-3.12 8.93 19.34 19.34 0 01-8.28 6.73 17 17 0 00-2.18-2.49 19.81 19.81 0 00-2.66-2.22 18 18 0 006.84-4.84 13.6 13.6 0 002.84-6.11h-9.24v-6h9.59v-5h6.43v5h8v-5.36h6.64zM161.57 9.2l7.21-.14A55.69 55.69 0 00173.14 0l7.26 1.58c-1.5 2.64-3 5.06-4.49 7.26q3.74-.08 11.31-.35c-1.14-1-2.32-1.89-3.52-2.77l5.23-3.34a68.15 68.15 0 017 5.47 33.82 33.82 0 015.19 5.57l-5.72 3.78a23.52 23.52 0 00-2.51-3.2q-17.37 1.11-30.62 1.76zm55.57 5.23a28.81 28.81 0 00-1.89-5 39.8 39.8 0 00-2.95-5.28l5.85-2.24a35.56 35.56 0 013.1 5 29 29 0 012.09 4.91zM233.6.31V15.4h13.9v26.66h-6.87v-1.71h-28.11V34h28.11v-3.29h-25.51v-6.16h25.51v-2.73h-27V15.4h12.93V.31zm14.73 3.21a99 99 0 01-5.93 11l-5.73-1.94a50.58 50.58 0 002.54-5.41 44.54 44.54 0 001.91-5.67z" fill="#211815"/><path d="M92.5 66.41c2 0 2.7.73 2.7 2a1.83 1.83 0 01-1.77 1.79v.09c1.3.16 2 .89 2 2 0 1.43-1 2.28-2.81 2.28H89.8v-8.16zm-1.76 3.47h1.47c1.32 0 2-.55 2-1.41s-.45-1.29-1.86-1.29h-1.61zm0 3.9h1.79c1.32 0 1.93-.56 1.93-1.55s-.76-1.58-2.19-1.58h-1.53zm13.01-6.57h-4.16v2.61h3.15v.81h-3.15v3.11h4.24v.81h-5.2v-8.14h5.12zm8.99 7.34h-1.23L109 69.62c-.46-.88-.74-1.51-1.16-2.37h-.17c0 .91.05 1.71.05 2.62v4.68h-.9v-8.14h1.49L110.6 71c.48.92.77 1.62 1.15 2.44h.18c0-.87-.09-1.71-.09-2.67v-4.36h.9zm8.97-7.33h-2.55v7.33h-1v-7.33h-2.53v-.81h6.06zm9.16 3.25c0 2.68-1.42 4.23-3.36 4.23s-3.36-1.53-3.36-4.2 1.43-4.24 3.36-4.24 3.36 1.53 3.36 4.21zm-5.7 0c0 2.25 1 3.43 2.34 3.43s2.34-1.18 2.34-3.43-.95-3.42-2.34-3.42-2.34 1.18-2.34 3.43zm16.17-.78l3.28 4.86h-1.12l-2.79-4.21-1.25 1.31v2.9h-1v-8.14h1v4.16l3.7-4.16h1.15zm12.38.78c0 2.68-1.42 4.23-3.36 4.23S147 73.17 147 70.5s1.42-4.24 3.36-4.24 3.36 1.53 3.36 4.21zm-5.7 0c0 2.25 1 3.43 2.34 3.43s2.34-1.18 2.34-3.43-.95-3.42-2.34-3.42-2.36 1.18-2.36 3.43zm14.19-3.25h-2.55v7.33h-1v-7.33h-2.53v-.81h6.05zm8.58 7.33h-1L169 72h-2.91l-.81 2.59h-.94l2.66-8.18h1.22zm-2.61-5.31c-.21-.69-.38-1.32-.57-2.09h-.17c-.19.77-.35 1.39-.56 2.07l-.6 2h2.51z"/></g></g></svg>