<svg xmlns="http://www.w3.org/2000/svg" viewBox="0 0 42.94 42.94"><defs><style>.cls-1{fill:#01b801;}.cls-2{fill:#fff;}</style></defs><g id="レイヤー_2" data-name="レイヤー 2"><g id="レイヤー_1-2" data-name="レイヤー 1"><circle class="cls-1" cx="21.47" cy="21.47" r="21.47"/><path class="cls-2" d="M35.37,21.4a9.6,9.6,0,0,1-2.28,6.09,31,31,0,0,1-6.32,5.6,36.07,36.07,0,0,1-4.86,3.06,3.73,3.73,0,0,1-.78.31,1.54,1.54,0,0,1-.3,0c-.36,0-.53-.14-.52-.49a7.74,7.74,0,0,1,.18-1.28,4.91,4.91,0,0,0,.07-1.38.72.72,0,0,0-.32-.52,3.63,3.63,0,0,0-1.53-.46A14.23,14.23,0,0,1,10.35,28,9.65,9.65,0,0,1,7.78,22.4,9.47,9.47,0,0,1,10.16,15,13.5,13.5,0,0,1,16.46,11a16.34,16.34,0,0,1,6.44-.74,15.08,15.08,0,0,1,8.36,3.19,10.63,10.63,0,0,1,3.86,5.84A9.16,9.16,0,0,1,35.37,21.4Zm-11.2.74-.05,0L24,22l-2.5-3.38c-.08-.11-.16-.21-.31-.21h-.92a.27.27,0,0,0-.29.3v5.87c0,.32.07.38.38.39h.72c.34,0,.41-.08.41-.41V21.41c0-.08,0-.16,0-.24a1.3,1.3,0,0,1,.15.2c.84,1.12,1.67,2.25,2.5,3.37a.45.45,0,0,0,.42.22h.77c.47,0,.38-.27.24-1.37a16.37,16.37,0,0,1,.09-4.53c.06-.49,0-.65-.32-.66h-.8c-.28,0-.36.09-.37.38v3.37Zm2.46-.46v2.91A.36.36,0,0,0,27,25q1.85,0,3.69,0c.28,0,.35-.07.35-.35s0-.53,0-.8-.08-.35-.36-.35H28.9c-.25,0-.58.09-.72,0s0-.48-.05-.73,0-.26.24-.25c.73,0,1.47,0,2.21,0,.41,0,.45,0,.45-.44v-.62c0-.39-.06-.45-.44-.45H28.9c-.25,0-.58.08-.72,0s0-.49-.05-.74,0-.24.22-.24c.78,0,1.55,0,2.32,0,.27,0,.36-.09.36-.36s0-.51,0-.77-.08-.39-.4-.39H27a.39.39,0,0,0-.39.4Zm-14.38,0v2.91c0,.4.17.42.78.33a11.46,11.46,0,0,1,3,0c.45.06.59,0,.6-.33v-.77c0-.29-.09-.38-.39-.38-.75,0-1.51,0-2.26,0-.23,0-.27-.07-.27-.28,0-1.47,0-2.94,0-4.4,0-.31-.08-.38-.39-.39h-.69c-.36,0-.43.08-.43.42Zm6.76,0V18.8c0-.33-.08-.41-.41-.41H18c-.4,0-.46.06-.46.47V24.6c0,.27.09.35.36.36h.75c.33,0,.41-.08.41-.41Z"/></g></g></svg>