<svg xmlns="http://www.w3.org/2000/svg" viewBox="0 0 202.48 67.63"><defs><style>.cls-1{fill:#211815;}</style></defs><g id="レイヤー_2" data-name="レイヤー 2"><g id="レイヤー_1-2" data-name="レイヤー 1"><path class="cls-1" d="M3.64,21.44H11.2a31.08,31.08,0,0,0-2.54,2.22A12,12,0,0,0,7,25.8,3.93,3.93,0,0,0,6.28,28a2.36,2.36,0,0,0,.4,1.38,2.87,2.87,0,0,0,1.74.9,21.5,21.5,0,0,0,4.18.36c2.16,0,4-.07,5.52-.2s3.35-.35,5.48-.64v6.52a99,99,0,0,1-11.88.84q-6,0-8.88-2.16A7.22,7.22,0,0,1,0,28.8a8.7,8.7,0,0,1,1-4A15.54,15.54,0,0,1,3.64,21.44Zm12.48-6.12H8.6L12,12.12H.72V6H22.4v4.64Zm1.4,5.84V14.84h3v6.32Zm4.76,0V14.84h3v6.32Z"/><path class="cls-1" d="M45.76,19q2,1.44,6.64,5.32l-3.28,5q-1.6-2-3.36-4V38H40.08V25.32a34.51,34.51,0,0,1-5.24,8,35.56,35.56,0,0,0-2.92-5.76,27.33,27.33,0,0,0,3.8-4.66,43.49,43.49,0,0,0,3.2-5.7H32.84V11.8h7.24V7.92q-2.56.48-6.12,1a12.52,12.52,0,0,0-.66-2.26,18.11,18.11,0,0,0-1-2.26Q36.77,3.68,41,2.56A44.9,44.9,0,0,0,48.16.12l4.08,4.44a58.77,58.77,0,0,1-6.48,2.08V11.8h6.36v5.36H45.76Zm13.52-14V27.6H53.64V4.92Zm9.4,26.16a10.13,10.13,0,0,1-.54,3.74,4,4,0,0,1-1.9,2,10.5,10.5,0,0,1-3.36.88A44.64,44.64,0,0,1,57.8,38a16.39,16.39,0,0,0-.76-3,21.51,21.51,0,0,0-1.24-3q2.52.12,6,.12a1.23,1.23,0,0,0,.84-.22,1,1,0,0,0,.24-.78V.76h5.76Z"/><path class="cls-1" d="M112.44,31.48a8.89,8.89,0,0,1-.52,3.42,3.66,3.66,0,0,1-1.84,1.86,8.94,8.94,0,0,1-3.08.84,40.61,40.61,0,0,1-4.8.16,16.87,16.87,0,0,0-.7-2.76,19.25,19.25,0,0,0-1.14-2.8c.88.08,2.23.12,4,.12h1.24a1.2,1.2,0,0,0,.78-.2.93.93,0,0,0,.22-.72V26.6H99.52V37.44H93.64V26.6h-7.2q-1.32,7.63-5.08,11.64a16.78,16.78,0,0,0-2.16-2,20.61,20.61,0,0,0-2.44-1.76,15.37,15.37,0,0,0,3.8-7.56,51.24,51.24,0,0,0,.88-10V2.6h31ZM93.64,21.12v-4H87.2q0,1.85-.12,4Zm0-13H87.2v3.64h6.44Zm13,3.64V8.12H99.52v3.64Zm-7.12,9.36h7.12v-4H99.52Z"/><path class="cls-1" d="M148.36,29.44a38.12,38.12,0,0,0,5.66,2,50.29,50.29,0,0,0,6.42,1.28,19.64,19.64,0,0,0-2,2.32,19.19,19.19,0,0,0-1.68,2.6,37.24,37.24,0,0,1-7-2.3,32.26,32.26,0,0,1-6.12-3.5V38H137.8V32a31.3,31.3,0,0,1-6,3.36A40.8,40.8,0,0,1,125,37.68a21,21,0,0,0-1.66-2.48,18.87,18.87,0,0,0-1.9-2.2,45.88,45.88,0,0,0,6.5-1.42,36.15,36.15,0,0,0,5.62-2.14h-11V24.72H137.8V22.84a97.82,97.82,0,0,1-11.6,1.36,9.24,9.24,0,0,0-.74-2.24,17,17,0,0,0-1.18-2.2,104.21,104.21,0,0,0,11.4-1l-2-.44-.36.44-5.52-1.44c.4-.43,1.12-1.28,2.16-2.56l.6-.72h-7.28V9.52H134l1.64-2.28h-6.84V8.88h-5.36V2.52h14.44V0h5.84V2.52h14.48V8.88h-5.6V7.24H138.16l3.32,1-1,1.32h17.92V14H151.8a13.79,13.79,0,0,1-2.48,3.8,78.74,78.74,0,0,1,7.56,2.44l-3.44,4a88.76,88.76,0,0,0-9.2-3.2,27.85,27.85,0,0,1-3.88,1.24h3.28v2.44h15.64v4.72ZM136.6,14.72q3.19.6,6.8,1.52A7.44,7.44,0,0,0,145.52,14h-8.36Z"/><path class="cls-1" d="M202.48,31.68a9,9,0,0,1-.54,3.48,3.85,3.85,0,0,1-1.9,1.92,8.68,8.68,0,0,1-3.06.82c-1.19.12-2.82.18-4.9.18a17.09,17.09,0,0,0-.72-2.9,17.89,17.89,0,0,0-1.16-2.82q2.09.12,5.52.12a1.38,1.38,0,0,0,.78-.24.87.87,0,0,0,.22-.68V26.2l-4.24,3.28a55.58,55.58,0,0,0-6.32-7.32,20.41,20.41,0,0,1-7.92,8.36,14.19,14.19,0,0,0-1.46-1.84,24.31,24.31,0,0,0-2-2V38.08H169V6.56h13.72V0h6V6.56h13.8Zm-27.68-6a13.43,13.43,0,0,0,6-5.82,19.58,19.58,0,0,0,1.86-7.66H174.8Zm13.84-13.48a38.33,38.33,0,0,1-.48,4.12,107.36,107.36,0,0,1,8.56,8.6V12.24Z"/><path d="M69,60.09c1.78,0,2.46.66,2.46,1.82a1.66,1.66,0,0,1-1.6,1.63v.08c1.17.15,1.84.81,1.84,1.8,0,1.3-.95,2.07-2.56,2.07H66.56v-7.4Zm-1.59,3.16h1.33c1.21,0,1.84-.5,1.84-1.28s-.41-1.18-1.69-1.18H67.42Zm0,3.54H69c1.21,0,1.76-.5,1.76-1.41s-.69-1.43-2-1.43H67.42Z"/><path d="M79.25,60.83H75.46V63.2h2.87v.73H75.46v2.83h3.86v.73H74.59v-7.4h4.66Z"/><path d="M87.41,67.49H86.3L84,63c-.41-.8-.67-1.37-1-2.15h-.15c0,.83,0,1.55,0,2.38v4.25H82v-7.4h1.36l2.12,4.15c.43.83.69,1.47,1,2.22h.16c0-.79-.08-1.56-.08-2.43V60.09h.81Z"/><path d="M95.57,60.83H93.25v6.66h-.88V60.83h-2.3v-.74h5.5Z"/><path d="M103.9,63.79c0,2.43-1.29,3.84-3.05,3.84s-3.06-1.39-3.06-3.82S99.09,60,100.85,60,103.9,61.35,103.9,63.79Zm-5.18,0c0,2,.87,3.11,2.13,3.11S103,65.84,103,63.8s-.86-3.12-2.12-3.12S98.72,61.75,98.72,63.8Z"/><path d="M113.42,63.07l3,4.42h-1l-2.53-3.82-1.14,1.19v2.63h-.86v-7.4h.86v3.79l3.37-3.79h1Z"/><path d="M124.67,63.79c0,2.43-1.28,3.84-3,3.84s-3.05-1.39-3.05-3.82S119.86,60,121.62,60,124.67,61.35,124.67,63.79Zm-5.18,0c0,2,.87,3.11,2.13,3.11s2.13-1.07,2.13-3.11-.87-3.12-2.13-3.12S119.49,61.75,119.49,63.8Z"/><path d="M132.4,60.83h-2.32v6.66h-.89V60.83h-2.3v-.74h5.51Z"/><path d="M140.19,67.49h-.91l-.72-2.35h-2.64l-.74,2.35h-.85l2.38-7.4h1.1Zm-2.37-4.83c-.19-.62-.34-1.19-.52-1.9h-.15c-.17.71-.32,1.27-.51,1.89l-.55,1.81h2.28Z"/></g></g></svg>