<svg xmlns="http://www.w3.org/2000/svg" viewBox="0 0 248.33 74.7"><defs><style>.cls-1{fill:#211815;}</style></defs><g id="レイヤー_2" data-name="レイヤー 2"><g id="レイヤー_1-2" data-name="レイヤー 1"><path class="cls-1" d="M0,39.73V32.82H19.89V14.43H0V7.52H27.06V39.73Z"/><path class="cls-1" d="M46,4.93h6.91c-.14.85-.29,1.62-.44,2.31s-.23,1.06-.26,1.12H67.28v6.73a32.57,32.57,0,0,1-2.53,10.47,24.42,24.42,0,0,1-5,7.42,34.28,34.28,0,0,1-6.07,4.88,33.36,33.36,0,0,1-5.76,2.93,35.17,35.17,0,0,1-4.36,1.38,11.07,11.07,0,0,1-1.72.33V35.38L43.38,35a27.08,27.08,0,0,0,3.81-1.34A26.77,26.77,0,0,0,52,31a20.68,20.68,0,0,0,4.62-4.51H48.49V19.89H59.27a22.94,22.94,0,0,0,.83-5H49.76a30.48,30.48,0,0,1-5.28,7.5,42.84,42.84,0,0,1-4.18,3.63,9.39,9.39,0,0,1-1.71,1.14V18.7a11.16,11.16,0,0,0,1-.81,16.15,16.15,0,0,0,2.2-2.53,25.31,25.31,0,0,0,2.42-4.29A27.27,27.27,0,0,0,46,4.93Z"/><path class="cls-1" d="M102.47,22.62a12.29,12.29,0,0,0-1.54-5.88,5.72,5.72,0,0,0-4.31-2.84c-.08,2.85-.27,5.72-.55,8.63a35.94,35.94,0,0,1-1.65,8,17.17,17.17,0,0,1-3.08,5.8,5.61,5.61,0,0,1-4.66,2.07,7.54,7.54,0,0,1-3.94-1.34,9.51,9.51,0,0,1-3.17-4.16A20.17,20.17,0,0,1,78.23,25a21.38,21.38,0,0,1,2-8.87,17.3,17.3,0,0,1,5.06-6.42,13.67,13.67,0,0,1,7.17-2.84,16.72,16.72,0,0,1,7.94,1.25,13.13,13.13,0,0,1,6,5.3A19.52,19.52,0,0,1,108.94,23a22.52,22.52,0,0,1-1.29,8.54A14.39,14.39,0,0,1,104,37.11,13.78,13.78,0,0,1,99.22,40a15.12,15.12,0,0,1-4.75.88v-6.6a7.27,7.27,0,0,0,5.89-3.06Q102.52,28.3,102.47,22.62ZM86.81,31.46c.68,0,1.24-.54,1.69-1.72a21.33,21.33,0,0,0,1.11-4.51c.27-1.83.48-3.74.61-5.74s.18-3.81.16-5.45a6.45,6.45,0,0,0-3.24,2.5,14.52,14.52,0,0,0-2,4.16A18.49,18.49,0,0,0,84.39,25,11,11,0,0,0,85,29.85C85.43,30.87,86.05,31.4,86.81,31.46Z"/><path class="cls-1" d="M129.54,16h-8V9.81h8V5.41h6.11v4.4h4.62q-.79-1.67-2.29-4.22h6.82q3.18,6.51,4.45,9.92c.85,2.27,1.27,3.42,1.27,3.45h-6.47c-.49-1.46-.92-2.67-1.27-3.63a34.32,34.32,0,0,0-1.89-4V16h-5.24V19.4c.38-.08.7-.14,1-.17a20.38,20.38,0,0,1,4.22.37,12.91,12.91,0,0,1,4.23,1.59,8.8,8.8,0,0,1,3.23,3.41,12.18,12.18,0,0,1,1.3,5.85,12.48,12.48,0,0,1-1.28,5.85,9.16,9.16,0,0,1-3.14,3.45,12.11,12.11,0,0,1-4,1.65,18,18,0,0,1-3.79.44V35.11a11,11,0,0,0,3.5-.46,3.06,3.06,0,0,0,1.85-1.5,6.29,6.29,0,0,0,.5-2.7,4.27,4.27,0,0,0-1.76-3.7,8.5,8.5,0,0,0-5.32-1.14h-.26a.84.84,0,0,0-.27,0v7.44a9.4,9.4,0,0,1-1.43,5.32,5.85,5.85,0,0,1-2.77,2.2,7.62,7.62,0,0,1-6.4-.7,9.23,9.23,0,0,1-3.13-3.17,10.24,10.24,0,0,1-1.41-5,10.1,10.1,0,0,1,1.08-4.95,12.68,12.68,0,0,1,3.21-4,15.17,15.17,0,0,1,4.74-2.62Zm0,17.68V26.93a6.09,6.09,0,0,0-2.34,2,5.11,5.11,0,0,0-.83,2.77,2.46,2.46,0,0,0,.42,1.63,2.86,2.86,0,0,0,1,.9,2.09,2.09,0,0,0,1.08.24s.13,0,.31,0S129.5,34.12,129.54,33.7Z"/><path class="cls-1" d="M191.22,20.55H201v6h-9.82V42.15h-6.64V26.58h-8.14a20.88,20.88,0,0,1-3.12,8.93A19.34,19.34,0,0,1,165,42.24a17,17,0,0,0-2.18-2.49,19.81,19.81,0,0,0-2.66-2.22A18,18,0,0,0,167,32.69a13.6,13.6,0,0,0,2.84-6.11H160.6v-6h9.59v-5h6.43v5h8V15.22h6.64ZM161.57,9.2l7.21-.14A55.69,55.69,0,0,0,173.14,0l7.26,1.58c-1.5,2.64-3,5.06-4.49,7.26q3.74-.08,11.31-.35c-1.14-1-2.32-1.89-3.52-2.77l5.23-3.34a68.15,68.15,0,0,1,7,5.47,33.82,33.82,0,0,1,5.19,5.57L195.4,17.2A23.52,23.52,0,0,0,192.89,14q-17.37,1.11-30.62,1.76Z"/><path class="cls-1" d="M217.14,14.43a28.81,28.81,0,0,0-1.89-5,39.8,39.8,0,0,0-2.95-5.28l5.85-2.24a35.56,35.56,0,0,1,3.1,5,29,29,0,0,1,2.09,4.91ZM233.6.31V15.4h13.9V42.06h-6.87V40.35H212.52V34h28.11V30.71H215.12V24.55h25.51V21.82h-27V15.4h12.93V.31Zm14.73,3.21a99,99,0,0,1-5.93,11l-5.73-1.94a50.58,50.58,0,0,0,2.54-5.41,44.54,44.54,0,0,0,1.91-5.67Z"/><path d="M92.5,66.41c2,0,2.7.73,2.7,2a1.83,1.83,0,0,1-1.77,1.79v.09c1.3.16,2,.89,2,2,0,1.43-1,2.28-2.81,2.28H89.8V66.41Zm-1.76,3.47h1.47c1.32,0,2-.55,2-1.41s-.45-1.29-1.86-1.29H90.74Zm0,3.9h1.79c1.32,0,1.93-.56,1.93-1.55s-.76-1.58-2.19-1.58H90.74Z"/><path d="M103.75,67.21H99.59v2.61h3.15v.81H99.59v3.11h4.24v.81h-5.2V66.41h5.12Z"/><path d="M112.74,74.55h-1.23L109,69.62c-.46-.88-.74-1.51-1.16-2.37h-.17c0,.91.05,1.71.05,2.62v4.68h-.9V66.41h1.49L110.6,71c.48.92.77,1.62,1.15,2.44h.18c0-.87-.09-1.71-.09-2.67V66.41h.9Z"/><path d="M121.71,67.22h-2.55v7.33h-1V67.22h-2.53v-.81h6.06Z"/><path d="M130.87,70.47c0,2.68-1.42,4.23-3.36,4.23s-3.36-1.53-3.36-4.2,1.43-4.24,3.36-4.24S130.87,67.79,130.87,70.47Zm-5.7,0c0,2.25,1,3.43,2.34,3.43s2.34-1.18,2.34-3.43-.95-3.42-2.34-3.42S125.17,68.23,125.17,70.48Z"/><path d="M141.34,69.69l3.28,4.86H143.5l-2.79-4.21-1.25,1.31v2.9h-1V66.41h1v4.16l3.7-4.16h1.15Z"/><path d="M153.72,70.47c0,2.68-1.42,4.23-3.36,4.23S147,73.17,147,70.5s1.42-4.24,3.36-4.24S153.72,67.79,153.72,70.47Zm-5.7,0c0,2.25,1,3.43,2.34,3.43s2.34-1.18,2.34-3.43-.95-3.42-2.34-3.42S148,68.23,148,70.48Z"/><path d="M162.21,67.22h-2.55v7.33h-1V67.22h-2.53v-.81h6.05Z"/><path d="M170.79,74.55h-1L169,72h-2.91l-.81,2.59h-.94L167,66.41h1.22Zm-2.61-5.31c-.21-.69-.38-1.32-.57-2.09h-.17c-.19.77-.35,1.39-.56,2.07l-.6,2h2.51Z"/></g></g></svg>